<?xml version="1.0" encoding="UTF-8" standalone="no"?>
<!-- Created with Inkscape (http://www.inkscape.org/) -->

<svg
   xmlns:dc="http://purl.org/dc/elements/1.1/"
   xmlns:cc="http://creativecommons.org/ns#"
   xmlns:rdf="http://www.w3.org/1999/02/22-rdf-syntax-ns#"
   xmlns:svg="http://www.w3.org/2000/svg"
   xmlns="http://www.w3.org/2000/svg"
   xmlns:sodipodi="http://sodipodi.sourceforge.net/DTD/sodipodi-0.dtd"
   xmlns:inkscape="http://www.inkscape.org/namespaces/inkscape"
   id="svg7122"
   version="1.1"
   inkscape:version="0.91 r13725"
   xml:space="preserve"
   width="748.30377"
   height="386.8425"
   viewBox="0 0 748.30377 386.84249"
   sodipodi:docname="nbislogo-text-orange.svg"><metadata
     id="metadata7128"><rdf:RDF><cc:Work
         rdf:about=""><dc:format>image/svg+xml</dc:format><dc:type
           rdf:resource="http://purl.org/dc/dcmitype/StillImage" /><dc:title></dc:title></cc:Work></rdf:RDF></metadata><defs
     id="defs7126" /><sodipodi:namedview
     pagecolor="#ffffff"
     bordercolor="#000000"
     borderopacity="0"
     objecttolerance="10"
     gridtolerance="10"
     guidetolerance="10"
     inkscape:pageopacity="0"
     inkscape:pageshadow="2"
     inkscape:window-width="1223"
     inkscape:window-height="694"
     id="namedview7124"
     showgrid="false"
     fit-margin-top="0"
     fit-margin-left="0"
     fit-margin-right="0"
     fit-margin-bottom="0"
     inkscape:zoom="0.51316318"
     inkscape:cx="374.14999"
     inkscape:cy="193.41875"
     inkscape:window-x="0"
     inkscape:window-y="27"
     inkscape:window-maximized="0"
     inkscape:current-layer="g7130" /><g
     id="g7130"
     inkscape:groupmode="layer"
     inkscape:label="ink_ext_XXXXXX"
     transform="matrix(1.25,0,0,-1.25,0,386.8425)"><g
       id="g7132"
       transform="scale(0.1,0.1)"><path
         d="m 3679.27,2926.38 0,0 c -8.5,16.78 -25.71,27.37 -44.53,27.37 l -40.67,0 c -20.49,0 -33.81,-21.58 -24.62,-39.9 l 67.99,-135.6 62.09,-105.62 c 48.75,-82.92 114.77,-154.37 193.58,-209.5 l 404.24,-282.81 c 54.97,-38.46 101.72,-87.49 137.52,-144.23 l 131.94,-212.02 19.32,170.81 -106.34,189.64 c -30.41,54.23 -73.22,100.51 -124.93,135.05 l -437.78,292.41 -42.41,38.66 c -68.56,62.51 -125.18,136.97 -167.07,219.76 l -28.33,55.98"
         style="fill:#8f3b1b;fill-opacity:1;fill-rule:nonzero;stroke:none"
         id="path7134"
         inkscape:connector-curvature="0" /><path
         d="m 3918.95,1341.73 0,0 -146.11,133.21 -87.74,214.92 3.19,82.39 -42.62,-147.25 22.98,-90.05 c 26.11,-102.38 89.77,-191.19 178.33,-248.81 l 382.52,-248.88 c 37.6,-24.46 81.48,-37.479 126.34,-37.479 l 15.74,0 c 39.75,0 53.74,52.699 19.22,72.409 l -471.85,269.54"
         style="fill:#8f3b1b;fill-opacity:1;fill-rule:nonzero;stroke:none"
         id="path7136"
         inkscape:connector-curvature="0" /><path
         d="m 4558.14,2664.92 0,0 1.67,-3.15 c 7.47,-14.05 9.04,-30.5 4.36,-45.71 l -16.57,-53.82 c -4.94,-16.06 -25.92,-19.91 -36.24,-6.64 l -218.68,281.16 c -23.3,29.97 -0.63,73.46 37.28,71.51 l 68.02,-3.48 c 20.85,-1.07 39.6,-13.01 49.4,-31.44 l 110.76,-208.43"
         style="fill:#8f3b1b;fill-opacity:1;fill-rule:nonzero;stroke:none"
         id="path7138"
         inkscape:connector-curvature="0" /><path
         d="m 4438.87,2810.32 0,0 c 11.54,-21.74 -5.85,-47.56 -30.34,-45.04 l -320.2,33.04 c -2.09,0.22 -4.2,0.22 -6.29,0 l -358.85,-36.75 c -12.93,-1.33 -25.3,5.62 -30.9,17.35 l -37.79,79.12 c -10.9,22.82 8.86,48.31 33.68,43.46 l 384.76,-75.24 c 3.06,-0.6 6.2,-0.73 9.3,-0.39 l 300.12,33.29 c 17.43,1.94 34.28,-6.96 42.5,-22.45 l 14.01,-26.39"
         style="fill:#82ca27;fill-opacity:1;fill-rule:nonzero;stroke:none"
         id="path7140"
         inkscape:connector-curvature="0" /><path
         d="m 4536.97,2598.65 0,0 c 2.41,-3.99 3.89,-8.47 4.31,-13.12 l 0,0 c 1.77,-19.3 -14.54,-35.41 -33.82,-33.41 l -266.33,27.63 c -1.89,0.2 -3.8,0.22 -5.69,0.07 l -339.82,-27.93 c -8.55,-0.71 -17,2.19 -23.32,7.99 l -29.97,27.47 c -21.68,19.88 -5.78,55.94 23.52,53.33 l 362.52,-32.22 c 3.2,-0.29 6.43,-0.07 9.57,0.65 l 223.13,50.91 c 20.36,4.64 41.4,-4.29 52.2,-22.16 l 23.7,-39.21"
         style="fill:#82ca27;fill-opacity:1;fill-rule:nonzero;stroke:none"
         id="path7142"
         inkscape:connector-curvature="0" /><path
         d="m 4124.38,2418.71 183.51,-30.63 c 5.23,-0.87 10.59,-0.38 15.57,1.43 l 75.29,27.32 c 24.37,8.84 48.08,-14.56 39.56,-39.04 l -1.46,-4.22 c -4.6,-13.21 -17.53,-21.66 -31.48,-20.57 l -82.99,6.53 c -4.3,0.34 -8.62,-0.23 -12.68,-1.67 l -97.47,-34.52 c -11.26,-3.98 -23.81,-1.1 -32.19,7.41 l -66.37,67.34 c -8.3,8.43 -0.96,22.57 10.71,20.62"
         style="fill:#82ca27;fill-opacity:1;fill-rule:nonzero;stroke:none"
         id="path7144"
         inkscape:connector-curvature="0" /><path
         d="m 3729.62,1483.45 0,0 c 4.82,-14.74 19.86,-23.6 35.09,-20.65 l 190.56,36.85 c 2.47,0.48 4.99,0.65 7.5,0.52 l 141.36,-7.62 c 12.17,-0.66 23.58,5.93 29.1,16.8 l 4.99,9.83 c 11.93,23.51 -9.29,50.15 -34.87,43.79 l -138.43,-34.42 c -3.91,-0.97 -7.98,-1.17 -11.96,-0.57 l -219.91,32.76 c -13.85,2.06 -25.03,-11.17 -20.68,-24.48 l 17.25,-52.81"
         style="fill:#82ca27;fill-opacity:1;fill-rule:nonzero;stroke:none"
         id="path7146"
         inkscape:connector-curvature="0" /><path
         d="m 4377.6,2174.72 -47.77,-23.2 c -4.32,-2.1 -9.07,-3.16 -13.87,-3.09 l -195.38,2.71 c -14.44,0.2 -27.08,-9.66 -30.38,-23.72 l -10.5,-44.63 c -5.57,-23.66 17.2,-44.12 40.13,-36.09 l 204.02,71.52 c 5.14,1.8 10.66,2.2 16,1.17 l 49.83,-9.59 c 26.47,-5.09 46.23,23.9 31.81,46.68 l -4.44,7.02 c -8.38,13.23 -25.36,18.06 -39.45,11.22"
         style="fill:#82ca27;fill-opacity:1;fill-rule:nonzero;stroke:none"
         id="path7148"
         inkscape:connector-curvature="0" /><path
         d="m 4540.34,1952.86 0,0 c 7.57,-20.52 -8.08,-42.17 -29.94,-41.41 l -243.65,8.46 c -2.35,0.08 -4.7,-0.1 -7,-0.56 l -397.13,-78.01 c -26.77,-5.26 -46.63,24.34 -31.63,47.12 l 52.31,79.44 c 6.36,9.65 17.58,14.92 29.07,13.66 l 346.28,-38.13 c 3.03,-0.33 6.09,-0.22 9.08,0.35 l 232.02,43.84 c 14.98,2.83 29.81,-5.57 35.09,-19.87 l 5.5,-14.89"
         style="fill:#82ca27;fill-opacity:1;fill-rule:nonzero;stroke:none"
         id="path7150"
         inkscape:connector-curvature="0" /><path
         d="m 4213.42,1138.79 0,0 c 25.85,-18.02 11.11,-58.64 -20.28,-55.89 l -211.13,15.13 c -2.51,-0.09 -4.99,-0.17 -7.49,-0.26 l -230.44,-32.45 c -25.79,-3.63 -44.15,24.42 -30.5,46.6 l 27.03,43.95 c 7.11,11.55 20.94,17.09 34.05,13.63 l 196.3,-51.75 c 4.95,-1.3 10.16,-1.35 15.13,-0.14 l 189.94,32.2 c 11.14,1.89 22.57,-0.67 31.83,-7.14 l 5.56,-3.88"
         style="fill:#82ca27;fill-opacity:1;fill-rule:nonzero;stroke:none"
         id="path7152"
         inkscape:connector-curvature="0" /><path
         d="m 4440.08,1804.73 -59.12,-118.26 c -5.75,-11.48 -18.01,-18.19 -30.78,-16.83 l -321.88,34.19 c -2.7,0.29 -5.43,0.21 -8.11,-0.22 l -313.45,-50.15 c -25.61,-4.1 -44.5,23.4 -31.47,45.83 l 18.54,31.96 c 5.86,10.1 16.93,16.01 28.59,15.26 l 298,-19.11 c 2.55,-0.17 5.1,-0.01 7.61,0.46 l 412.07,76.87 0,0"
         style="fill:#82ca27;fill-opacity:1;fill-rule:nonzero;stroke:none"
         id="path7154"
         inkscape:connector-curvature="0" /><path
         d="m 4500.38,2530.93 66.43,101.36 -3.64,-151.9 c -0.39,-16.22 -5.95,-31.89 -15.87,-44.73 l -68.94,-89.18 c -50.4,-65.21 -110.16,-122.61 -177.35,-170.35 l -409.59,-291.08 c -25.56,-18.16 -48.98,-39.15 -69.84,-62.56 0,0 -141.15,-143.26 -175.91,-197.49 5.5,28.05 6.95,43.23 6.95,43.23 13.79,85.92 49.18,166.93 102.85,235.43 l 34.08,43.5 c 26.86,34.28 58.74,64.33 94.56,89.11 l 401.7,277.94 c 31.83,22.03 61.57,46.96 88.82,74.46 l 58.57,59.11 c 25.14,25.38 47.65,53.24 67.18,83.15 l 0,0"
         style="fill:#f36e18;fill-opacity:1;fill-rule:nonzero;stroke:none"
         id="path7156"
         inkscape:connector-curvature="0" /><path
         d="m 4231.74,1656.21 -269.62,-186.56 c -87.2,-60.33 -161.79,-137.08 -219.6,-225.97 l -152.04,-233.75 c -6.78,-10.418 0.7,-24.2 13.13,-24.2 l 71.02,0 c 17.53,0 33.77,9.219 42.76,24.27 l 36.72,61.52 c 65.19,109.21 152.39,203.66 256.07,277.33 l 277.93,197.52 c 76,54.01 147.03,114.69 212.25,181.31 l 45.53,46.51 c 21.37,21.84 33.85,50.85 35,81.38 l 5.24,139.31 -0.39,-0.66 c -25.77,-59.63 -52.79,-86.87 -79.32,-115.98 l -11.34,-11.37 c -8.53,-8.56 -17.56,-16.6 -27.04,-24.08 l -236.3,-186.58"
         style="fill:#f36e18;fill-opacity:1;fill-rule:nonzero;stroke:none"
         id="path7158"
         inkscape:connector-curvature="0" /><path
         d="m 1847.81,953.441 -561.32,0 -906.095,1575.699 -12.825,0 c 18.028,-278.31 27.071,-476.8 27.071,-595.52 l 0,-980.179 -394.641,0 0,2082.879 557.051,0 904.669,-1560.02 9.98,0 c -14.25,270.68 -21.38,462.06 -21.38,574.14 l 0,985.88 397.49,0 0,-2082.879"
         style="fill:#f36e18;fill-opacity:1;fill-rule:nonzero;stroke:none"
         id="path7160"
         inkscape:connector-curvature="0" /><path
         d="m 2510.29,1860.97 0,-542.81 287.79,0 c 121.57,0 211.32,23.26 269.26,69.82 57.92,46.52 86.91,117.74 86.91,213.69 0,172.85 -123.48,259.3 -370.42,259.3 l -273.54,0 z m 0,350.46 256.45,0 c 119.67,0 206.33,18.52 260,55.57 53.65,37.04 80.49,98.3 80.49,183.78 0,79.78 -29.2,136.99 -87.61,171.67 -58.41,34.66 -150.8,52.01 -277.1,52.01 l -232.23,0 0,-463.03 z m -441.65,824.89 648.23,0 c 295.38,0 509.79,-42.02 643.25,-126.08 133.43,-84.05 200.17,-217.76 200.17,-401.05 0,-124.44 -29.21,-226.52 -87.62,-306.3 -58.41,-79.79 -136.06,-127.76 -232.93,-143.9 l 0,-14.25 c 131.99,-29.45 227.23,-84.54 285.64,-165.26 58.41,-80.73 87.61,-188.06 87.61,-321.98 0,-189.97 -68.62,-338.14 -205.85,-444.49 -137.27,-106.38 -323.65,-159.569 -559.2,-159.569 l -779.3,0 0,2082.879"
         style="fill:#f36e18;fill-opacity:1;fill-rule:nonzero;stroke:none"
         id="path7162"
         inkscape:connector-curvature="0" /><path
         d="m 5975,1560.36 c 0,-188.07 -67.67,-336.22 -203.01,-444.5 -135.36,-108.28 -323.65,-162.419 -564.89,-162.419 -222.25,0 -418.86,41.789 -589.82,125.379 l 0,410.31 c 140.56,-62.7 259.52,-106.86 356.88,-132.5 97.35,-25.65 186.4,-38.46 267.14,-38.46 96.86,0 171.17,18.52 222.95,55.56 51.75,37.04 77.64,92.1 77.64,165.25 0,40.84 -11.39,77.17 -34.18,108.99 -22.8,31.81 -56.29,62.45 -100.45,91.9 -44.16,29.43 -134.15,76.44 -269.97,141.03 -127.29,59.85 -222.74,117.3 -286.36,172.4 -63.64,55.06 -114.46,119.18 -152.44,192.33 -38,73.12 -56.98,158.61 -56.98,256.43 0,184.26 62.43,329.11 187.34,434.53 124.88,105.43 297.51,158.15 517.87,158.15 108.27,0 211.56,-12.83 309.86,-38.47 98.31,-25.64 201.11,-61.75 308.45,-108.28 l -142.47,-343.34 c -111.13,45.58 -203.01,77.39 -275.67,95.45 -72.66,18.03 -144.15,27.06 -214.42,27.06 -83.59,0 -147.7,-19.47 -192.33,-58.41 -44.65,-38.95 -66.97,-89.74 -66.97,-152.44 0,-38.95 9.02,-72.9 27.08,-101.86 18.03,-28.98 46.77,-56.98 86.2,-84.06 39.4,-27.06 132.7,-75.75 279.94,-146.02 194.68,-93.09 328.14,-186.41 400.34,-279.95 72.16,-93.57 108.27,-208.25 108.27,-344.06"
         style="fill:#f36e18;fill-opacity:1;fill-rule:nonzero;stroke:none"
         id="path7164"
         inkscape:connector-curvature="0" /><path
         d="m 252.582,439.039 -42.902,0 -176.723,271.383 -1.7734,0 c 2.3555,-31.84 3.543,-61.043 3.543,-87.582 l 0,-183.801 -34.7266,0 0,323.371 42.4648,0 176.2812,-270.281 1.77,0 c -0.297,3.973 -0.961,16.769 -1.993,38.371 -1.035,21.59 -1.402,37.051 -1.109,46.34 l 0,185.57 35.168,0 0,-323.371"
         style="fill:#82ca27;fill-opacity:1;fill-rule:nonzero;stroke:none"
         id="path7166"
         inkscape:connector-curvature="0" /><path
         d="m 492.785,575.73 -37.601,100.192 c -4.868,12.687 -9.883,28.238 -15.039,46.68 -3.247,-14.161 -7.887,-29.731 -13.934,-46.68 l -38.047,-100.192 104.621,0 z m 51.981,-136.691 -40.258,102.852 -129.61,0 -39.812,-102.852 -38.047,0 127.844,324.699 31.629,0 127.179,-324.699 -38.925,0"
         style="fill:#82ca27;fill-opacity:1;fill-rule:nonzero;stroke:none"
         id="path7168"
         inkscape:connector-curvature="0" /><path
         d="m 727.68,439.039 -37.602,0 0,289.961 -102.402,0 0,33.41 242.41,0 0,-33.41 -102.406,0 0,-289.961"
         style="fill:#82ca27;fill-opacity:1;fill-rule:nonzero;stroke:none"
         id="path7170"
         inkscape:connector-curvature="0" /><path
         d="m 878.742,439.039 37.6016,0 0,323.371 -37.6016,0 0,-323.371 z"
         style="fill:#82ca27;fill-opacity:1;fill-rule:nonzero;stroke:none"
         id="path7172"
         inkscape:connector-curvature="0" /><path
         d="m 1028.04,601.172 c 0,-43.801 9.32,-77.012 27.98,-99.652 18.65,-22.629 45.74,-33.95 81.28,-33.95 35.83,0 62.88,11.282 81.17,33.84 18.29,22.559 27.43,55.809 27.43,99.762 0,43.488 -9.11,76.488 -27.32,98.976 -18.21,22.481 -45.16,33.731 -80.84,33.731 -35.83,0 -63.07,-11.32 -81.72,-33.957 -18.66,-22.633 -27.98,-55.563 -27.98,-98.75 z m 257.67,0 c 0,-51.762 -13.09,-92.461 -39.26,-122.102 -26.17,-29.629 -62.56,-44.449 -109.15,-44.449 -47.63,0 -84.38,14.559 -110.26,43.68 -25.88,29.121 -38.813,70.219 -38.813,123.308 0,52.629 12.973,93.45 38.923,122.422 25.95,28.969 62.82,43.469 110.59,43.469 46.45,0 82.72,-14.762 108.82,-44.238 26.1,-29.492 39.15,-70.203 39.15,-122.09"
         style="fill:#82ca27;fill-opacity:1;fill-rule:nonzero;stroke:none"
         id="path7174"
         inkscape:connector-curvature="0" /><path
         d="m 1610.4,439.039 -42.9,0 -176.72,271.383 -1.78,0 c 2.36,-31.84 3.55,-61.043 3.55,-87.582 l 0,-183.801 -34.73,0 0,323.371 42.46,0 176.28,-270.281 1.78,0 c -0.3,3.973 -0.97,16.769 -2,38.371 -1.03,21.59 -1.4,37.051 -1.1,46.34 l 0,185.57 35.16,0 0,-323.371"
         style="fill:#82ca27;fill-opacity:1;fill-rule:nonzero;stroke:none"
         id="path7176"
         inkscape:connector-curvature="0" /><path
         d="M 1850.61,575.73 1813,675.922 c -4.86,12.687 -9.88,28.238 -15.04,46.68 -3.24,-14.161 -7.88,-29.731 -13.93,-46.68 l -38.05,-100.192 104.63,0 z m 51.97,-136.691 -40.25,102.852 -129.61,0 -39.81,-102.852 -38.05,0 127.84,324.699 31.63,0 127.18,-324.699 -38.93,0"
         style="fill:#82ca27;fill-opacity:1;fill-rule:nonzero;stroke:none"
         id="path7178"
         inkscape:connector-curvature="0" /><path
         d="m 1985.97,439.039 0,323.371 37.6,0 0,-289.308 142.66,0 0,-34.063 -180.26,0"
         style="fill:#82ca27;fill-opacity:1;fill-rule:nonzero;stroke:none"
         id="path7180"
         inkscape:connector-curvature="0" /><path
         d="m 2376.35,592.09 0,-120.981 67.46,0 c 26.1,0 45.74,5.051 58.94,15.153 13.2,10.097 19.8,25.91 19.8,47.437 0,20.063 -6.75,34.801 -20.24,44.25 -13.49,9.43 -34.03,14.141 -61.6,14.141 l -64.36,0 z m 0,31.859 61.93,0 c 26.54,0 45.63,4.16 57.29,12.5 11.64,8.321 17.47,22.371 17.47,42.133 0,18.129 -6.49,31.219 -19.47,39.25 -12.97,8.039 -33.62,12.059 -61.93,12.059 l -55.29,0 0,-105.942 z m -37.6,138.461 91.35,0 c 42.9,0 73.94,-6.422 93.11,-19.25 19.17,-12.828 28.75,-33.101 28.75,-60.82 0,-19.168 -5.34,-34.988 -16.03,-47.442 -10.69,-12.468 -26.29,-20.539 -46.78,-24.226 l 0,-2.211 c 49.1,-8.402 73.65,-34.199 73.65,-77.41 0,-28.903 -9.77,-51.461 -29.3,-67.68 -19.54,-16.223 -46.86,-24.332 -81.95,-24.332 l -112.8,0 0,323.371"
         style="fill:#82ca27;fill-opacity:1;fill-rule:nonzero;stroke:none"
         id="path7182"
         inkscape:connector-curvature="0" /><path
         d="m 2632.25,439.039 37.6016,0 0,323.371 -37.6016,0 0,-323.371 z"
         style="fill:#82ca27;fill-opacity:1;fill-rule:nonzero;stroke:none"
         id="path7184"
         inkscape:connector-curvature="0" /><path
         d="m 2781.55,601.172 c 0,-43.801 9.32,-77.012 27.98,-99.652 18.65,-22.629 45.74,-33.95 81.28,-33.95 35.83,0 62.88,11.282 81.17,33.84 18.28,22.559 27.42,55.809 27.42,99.762 0,43.488 -9.1,76.488 -27.3,98.976 -18.22,22.481 -45.17,33.731 -80.85,33.731 -35.83,0 -63.07,-11.32 -81.72,-33.957 -18.66,-22.633 -27.98,-55.563 -27.98,-98.75 z m 257.67,0 c 0,-51.762 -13.09,-92.461 -39.26,-122.102 -26.17,-29.629 -62.56,-44.449 -109.15,-44.449 -47.63,0 -84.38,14.559 -110.26,43.68 -25.88,29.121 -38.82,70.219 -38.82,123.308 0,52.629 12.98,93.45 38.93,122.422 25.95,28.969 62.82,43.469 110.59,43.469 46.45,0 82.72,-14.762 108.83,-44.238 26.09,-29.492 39.14,-70.203 39.14,-122.09"
         style="fill:#82ca27;fill-opacity:1;fill-rule:nonzero;stroke:none"
         id="path7186"
         inkscape:connector-curvature="0" /><path
         d="m 3111.32,439.039 37.6094,0 0,323.371 -37.6094,0 0,-323.371 z"
         style="fill:#82ca27;fill-opacity:1;fill-rule:nonzero;stroke:none"
         id="path7188"
         inkscape:connector-curvature="0" /><path
         d="m 3490.2,439.039 -42.91,0 -176.72,271.383 -1.77,0 c 2.36,-31.84 3.54,-61.043 3.54,-87.582 l 0,-183.801 -34.73,0 0,323.371 42.47,0 176.29,-270.281 1.76,0 c -0.3,3.973 -0.96,16.769 -1.99,38.371 -1.03,21.59 -1.4,37.051 -1.1,46.34 l 0,185.57 35.16,0 0,-323.371"
         style="fill:#82ca27;fill-opacity:1;fill-rule:nonzero;stroke:none"
         id="path7190"
         inkscape:connector-curvature="0" /><path
         d="m 3616.73,439.039 -37.61,0 0,323.371 180.26,0 0,-33.41 -142.65,0 0,-118.328 134.03,0 0,-33.391 -134.03,0 0,-138.242"
         style="fill:#82ca27;fill-opacity:1;fill-rule:nonzero;stroke:none"
         id="path7192"
         inkscape:connector-curvature="0" /><path
         d="m 3835.91,601.172 c 0,-43.801 9.33,-77.012 27.98,-99.652 18.66,-22.629 45.75,-33.95 81.28,-33.95 35.84,0 62.89,11.282 81.17,33.84 18.29,22.559 27.43,55.809 27.43,99.762 0,43.488 -9.1,76.488 -27.31,98.976 -18.21,22.481 -45.17,33.731 -80.84,33.731 -35.83,0 -63.07,-11.32 -81.73,-33.957 -18.65,-22.633 -27.98,-55.563 -27.98,-98.75 z m 257.67,0 c 0,-51.762 -13.08,-92.461 -39.25,-122.102 -26.18,-29.629 -62.56,-44.449 -109.16,-44.449 -47.62,0 -84.38,14.559 -110.25,43.68 -25.88,29.121 -38.82,70.219 -38.82,123.308 0,52.629 12.98,93.45 38.93,122.422 25.95,28.969 62.81,43.469 110.59,43.469 46.45,0 82.72,-14.762 108.82,-44.238 26.1,-29.492 39.14,-70.203 39.14,-122.09"
         style="fill:#82ca27;fill-opacity:1;fill-rule:nonzero;stroke:none"
         id="path7194"
         inkscape:connector-curvature="0" /><path
         d="m 4203.29,605.809 51.53,0 c 26.55,0 46.01,5.273 58.39,15.82 12.39,10.531 18.58,26.34 18.58,47.441 0,21.371 -6.3,36.789 -18.91,46.219 -12.61,9.441 -32.84,14.16 -60.71,14.16 l -48.88,0 0,-123.64 z m 0,-32.289 0,-134.481 -37.61,0 0,323.371 88.7,0 c 39.66,0 68.97,-7.601 87.92,-22.789 18.94,-15.191 28.42,-38.039 28.42,-68.562 0,-42.77 -21.68,-71.668 -65.03,-86.7 l 87.82,-145.32 -44.47,0 -78.29,134.481 -67.46,0"
         style="fill:#82ca27;fill-opacity:1;fill-rule:nonzero;stroke:none"
         id="path7196"
         inkscape:connector-curvature="0" /><path
         d="m 4588.8,439.039 -109.7,286.652 -1.77,0 c 2.07,-22.711 3.1,-49.691 3.1,-80.953 l 0,-205.699 -34.73,0 0,323.371 56.62,0 102.41,-266.738 1.77,0 103.29,266.738 56.18,0 0,-323.371 -37.6,0 0,208.352 c 0,23.89 1.03,49.839 3.09,77.847 l -1.76,0 -110.59,-286.199 -30.31,0"
         style="fill:#82ca27;fill-opacity:1;fill-rule:nonzero;stroke:none"
         id="path7198"
         inkscape:connector-curvature="0" /><path
         d="m 5005.94,575.73 -37.6,100.192 c -4.86,12.687 -9.88,28.238 -15.04,46.68 -3.24,-14.161 -7.88,-29.731 -13.92,-46.68 l -38.05,-100.192 104.61,0 z m 51.98,-136.691 -40.25,102.852 -129.61,0 -39.81,-102.852 -38.05,0 127.85,324.699 31.62,0 127.18,-324.699 -38.93,0"
         style="fill:#82ca27;fill-opacity:1;fill-rule:nonzero;stroke:none"
         id="path7200"
         inkscape:connector-curvature="0" /><path
         d="m 5240.84,439.039 -37.6,0 0,289.961 -102.41,0 0,33.41 242.42,0 0,-33.41 -102.41,0 0,-289.961"
         style="fill:#82ca27;fill-opacity:1;fill-rule:nonzero;stroke:none"
         id="path7202"
         inkscape:connector-curvature="0" /><path
         d="m 5391.89,439.039 37.6094,0 0,323.371 -37.6094,0 0,-323.371 z"
         style="fill:#82ca27;fill-opacity:1;fill-rule:nonzero;stroke:none"
         id="path7204"
         inkscape:connector-curvature="0" /><path
         d="m 5656.65,733.43 c -35.53,0 -63.59,-11.84 -84.15,-35.5 -20.58,-23.668 -30.86,-56.071 -30.86,-97.211 0,-42.321 9.91,-75.008 29.74,-98.09 19.84,-23.07 48.12,-34.609 84.83,-34.609 22.56,0 48.29,4.05 77.19,12.16 l 0,-32.95 c -22.42,-8.41 -50.06,-12.609 -82.94,-12.609 -47.63,0 -84.38,14.449 -110.26,43.348 -25.88,28.902 -38.81,69.972 -38.81,123.203 0,33.308 6.23,62.508 18.69,87.59 12.46,25.058 30.44,44.367 53.96,57.937 23.52,13.563 51.2,20.352 83.06,20.352 33.9,0 63.55,-6.192 88.91,-18.582 l -15.93,-32.289 c -24.47,11.5 -48.96,17.25 -73.43,17.25"
         style="fill:#82ca27;fill-opacity:1;fill-rule:nonzero;stroke:none"
         id="path7206"
         inkscape:connector-curvature="0" /><path
         d="m 5986.43,525.078 c 0,-28.457 -10.31,-50.648 -30.96,-66.578 -20.64,-15.922 -48.66,-23.879 -84.05,-23.879 -38.34,0 -67.83,4.938 -88.47,14.82 l 0,36.27 c 13.27,-5.609 27.72,-10.031 43.35,-13.27 15.63,-3.25 31.11,-4.871 46.45,-4.871 25.06,0 43.93,4.75 56.62,14.27 12.68,9.512 19.02,22.75 19.02,39.699 0,11.211 -2.25,20.391 -6.75,27.543 -4.49,7.148 -12.01,13.75 -22.56,19.789 -10.54,6.051 -26.57,12.91 -48.1,20.57 -30.08,10.77 -51.58,23.52 -64.47,38.27 -12.91,14.738 -19.36,33.98 -19.36,57.719 0,24.922 9.37,44.75 28.09,59.511 18.73,14.739 43.5,22.11 74.32,22.11 32.14,0 61.71,-5.903 88.69,-17.699 l -11.73,-32.731 c -26.68,11.199 -52.63,16.809 -77.84,16.809 -19.91,0 -35.47,-4.282 -46.68,-12.828 -11.21,-8.551 -16.8,-20.422 -16.8,-35.614 0,-11.199 2.06,-20.386 6.19,-27.527 4.13,-7.152 11.09,-13.723 20.9,-19.691 9.8,-5.981 24.8,-12.571 45.01,-19.79 33.92,-12.101 57.25,-25.07 70.01,-38.929 12.75,-13.86 19.12,-31.86 19.12,-53.973"
         style="fill:#82ca27;fill-opacity:1;fill-rule:nonzero;stroke:none"
         id="path7208"
         inkscape:connector-curvature="0" /><path
         d="m 158.031,4.42969 37.5977,0 0,323.359 -37.5977,0 0,-323.359 z"
         style="fill:#82ca27;fill-opacity:1;fill-rule:nonzero;stroke:none"
         id="path7210"
         inkscape:connector-curvature="0" /><path
         d="m 536.906,4.42969 -42.906,0 -176.723,271.37931 -1.769,0 c 2.355,-31.84 3.543,-61.039 3.543,-87.59 l 0,-183.78931 -34.727,0 0,323.35931 42.465,0 176.277,-270.2773 1.774,0 c -0.297,3.9766 -0.961,16.7774 -1.996,38.3672 -1.031,21.6011 -1.399,37.0621 -1.106,46.3401 l 0,185.57 35.168,0 0,-323.35931"
         style="fill:#82ca27;fill-opacity:1;fill-rule:nonzero;stroke:none"
         id="path7212"
         inkscape:connector-curvature="0" /><path
         d="m 663.422,4.42969 -37.598,0 0,323.35931 180.258,0 0,-33.398 -142.66,0 0,-118.332 134.035,0 0,-33.387 -134.035,0 0,-138.24231"
         style="fill:#82ca27;fill-opacity:1;fill-rule:nonzero;stroke:none"
         id="path7214"
         inkscape:connector-curvature="0" /><path
         d="m 897.211,171.199 51.535,0 c 26.543,0 46.008,5.27 58.394,15.813 12.38,10.539 18.57,26.347 18.57,47.437 0,21.383 -6.29,36.801 -18.9,46.231 -12.615,9.441 -32.849,14.16 -60.716,14.16 l -48.883,0 0,-123.641 z m 0,-32.289 0,-134.48031 -37.598,0 0,323.35931 88.692,0 c 39.664,0 68.965,-7.598 87.915,-22.777 18.95,-15.192 28.42,-38.043 28.42,-68.563 0,-42.769 -21.67,-71.668 -65.023,-86.711 l 87.803,-145.30831 -44.45,0 -78.302,134.48031 -67.457,0"
         style="fill:#82ca27;fill-opacity:1;fill-rule:nonzero;stroke:none"
         id="path7216"
         inkscape:connector-curvature="0" /><path
         d="m 1290.91,141.121 -37.6,100.188 c -4.87,12.691 -9.88,28.242 -15.04,46.671 -3.24,-14.152 -7.89,-29.718 -13.93,-46.671 l -38.05,-100.188 104.62,0 z M 1342.89,4.42969 1302.63,107.27 l -129.61,0 -39.81,-102.84031 -38.04,0 127.84,324.69131 31.63,0 127.18,-324.69131 -38.93,0"
         style="fill:#82ca27;fill-opacity:1;fill-rule:nonzero;stroke:none"
         id="path7218"
         inkscape:connector-curvature="0" /><path
         d="m 1608.74,90.4688 c 0,-28.4571 -10.32,-50.6602 -30.97,-66.5782 C 1557.13,7.96875 1529.12,0 1493.73,0 c -38.34,0 -67.83,4.94141 -88.47,14.832 l 0,36.2578 c 13.27,-5.6015 27.72,-10.0312 43.35,-13.2617 15.63,-3.2461 31.11,-4.8672 46.44,-4.8672 25.07,0 43.95,4.75 56.63,14.2696 12.68,9.5078 19.02,22.7383 19.02,39.6992 0,11.2109 -2.25,20.3793 -6.74,27.5393 -4.51,7.152 -12.03,13.75 -22.57,19.793 -10.54,6.047 -26.58,12.898 -48.1,20.57 -30.09,10.77 -51.58,23.508 -64.47,38.258 -12.91,14.75 -19.36,33.992 -19.36,57.73 0,24.918 9.36,44.75 28.09,59.5 18.72,14.75 43.5,22.121 74.31,22.121 32.15,0 61.71,-5.91 88.7,-17.703 l -11.72,-32.726 c -26.69,11.199 -52.65,16.808 -77.86,16.808 -19.9,0 -35.46,-4.281 -46.67,-12.832 -11.2,-8.547 -16.81,-20.429 -16.81,-35.609 0,-11.207 2.06,-20.391 6.2,-27.527 4.12,-7.161 11.09,-13.723 20.9,-19.704 9.8,-5.968 24.8,-12.566 45.01,-19.789 33.91,-12.089 57.24,-25.07 70,-38.918 12.75,-13.859 19.13,-31.863 19.13,-53.9722"
         style="fill:#82ca27;fill-opacity:1;fill-rule:nonzero;stroke:none"
         id="path7220"
         inkscape:connector-curvature="0" /><path
         d="m 1774.41,4.42969 -37.6,0 0,289.96131 -102.4,0 0,33.398 242.41,0 0,-33.398 -102.41,0 0,-289.96131"
         style="fill:#82ca27;fill-opacity:1;fill-rule:nonzero;stroke:none"
         id="path7222"
         inkscape:connector-curvature="0" /><path
         d="m 1963.07,171.199 51.54,0 c 26.54,0 46.01,5.27 58.39,15.813 12.39,10.539 18.58,26.347 18.58,47.437 0,21.383 -6.3,36.801 -18.91,46.231 -12.61,9.441 -32.85,14.16 -60.71,14.16 l -48.89,0 0,-123.641 z m 0,-32.289 0,-134.48031 -37.6,0 0,323.35931 88.7,0 c 39.66,0 68.96,-7.598 87.91,-22.777 18.95,-15.192 28.42,-38.043 28.42,-68.563 0,-42.769 -21.67,-71.668 -65.02,-86.711 l 87.81,-145.30831 -44.46,0 -78.3,134.48031 -67.46,0"
         style="fill:#82ca27;fill-opacity:1;fill-rule:nonzero;stroke:none"
         id="path7224"
         inkscape:connector-curvature="0" /><path
         d="m 2449.67,327.789 0,-209.238 c 0,-36.8596 -11.14,-65.8322 -33.4,-86.9221 C 2394.01,10.5508 2363.41,0 2324.48,0 c -38.92,0 -69.04,10.6211 -90.35,31.8594 -21.31,21.2304 -31.96,50.4219 -31.96,87.5896 l 0,208.34 37.6,0 0,-211 c 0,-26.9882 7.37,-47.6992 22.12,-62.1484 14.74,-14.4609 36.42,-21.6797 65.02,-21.6797 27.28,0 48.3,7.2579 63.04,21.7774 14.74,14.5312 22.12,35.3633 22.12,62.4917 l 0,210.559 37.6,0"
         style="fill:#82ca27;fill-opacity:1;fill-rule:nonzero;stroke:none"
         id="path7226"
         inkscape:connector-curvature="0" /><path
         d="m 2673.73,298.82 c -35.54,0 -63.59,-11.84 -84.16,-35.5 -20.57,-23.672 -30.86,-56.07 -30.86,-97.211 0,-42.32 9.91,-75.0192 29.75,-98.0895 19.83,-23.0781 48.1,-34.6093 84.82,-34.6093 22.56,0 48.29,4.039 77.19,12.1601 l 0,-32.9609 C 2728.06,4.21094 2700.41,0 2667.53,0 c -47.63,0 -84.38,14.4609 -110.25,43.3594 -25.89,28.8906 -38.82,69.9606 -38.82,123.1996 0,33.312 6.22,62.511 18.69,87.582 12.45,25.058 30.44,44.379 53.96,57.949 23.52,13.558 51.21,20.351 83.06,20.351 33.91,0 63.55,-6.191 88.91,-18.582 l -15.92,-32.3 c -24.48,11.5 -48.96,17.261 -73.43,17.261"
         style="fill:#82ca27;fill-opacity:1;fill-rule:nonzero;stroke:none"
         id="path7228"
         inkscape:connector-curvature="0" /><path
         d="m 2920.56,4.42969 -37.6,0 0,289.96131 -102.41,0 0,33.398 242.41,0 0,-33.398 -102.4,0 0,-289.96131"
         style="fill:#82ca27;fill-opacity:1;fill-rule:nonzero;stroke:none"
         id="path7230"
         inkscape:connector-curvature="0" /><path
         d="m 3315.8,327.789 0,-209.238 c 0,-36.8596 -11.13,-65.8322 -33.39,-86.9221 C 3260.14,10.5508 3229.55,0 3190.62,0 c -38.93,0 -69.05,10.6211 -90.35,31.8594 -21.31,21.2304 -31.96,50.4219 -31.96,87.5896 l 0,208.34 37.6,0 0,-211 c 0,-26.9882 7.37,-47.6992 22.12,-62.1484 14.74,-14.4609 36.42,-21.6797 65.03,-21.6797 27.27,0 48.28,7.2579 63.03,21.7774 14.74,14.5312 22.12,35.3633 22.12,62.4917 l 0,210.559 37.59,0"
         style="fill:#82ca27;fill-opacity:1;fill-rule:nonzero;stroke:none"
         id="path7232"
         inkscape:connector-curvature="0" /><path
         d="m 3439.01,171.199 51.52,0 c 26.55,0 46.01,5.27 58.39,15.813 12.39,10.539 18.58,26.347 18.58,47.437 0,21.383 -6.3,36.801 -18.9,46.231 -12.61,9.441 -32.85,14.16 -60.72,14.16 l -48.87,0 0,-123.641 z m 0,-32.289 0,-134.48031 -37.61,0 0,323.35931 88.69,0 c 39.67,0 68.97,-7.598 87.92,-22.777 18.95,-15.192 28.42,-38.043 28.42,-68.563 0,-42.769 -21.67,-71.668 -65.03,-86.711 l 87.82,-145.30831 -44.46,0 -78.3,134.48031 -67.45,0"
         style="fill:#82ca27;fill-opacity:1;fill-rule:nonzero;stroke:none"
         id="path7234"
         inkscape:connector-curvature="0" /><path
         d="m 3861.67,4.42969 -180.26,0 0,323.35931 180.26,0 0,-33.398 -142.65,0 0,-104.172 134.03,0 0,-33.18 -134.03,0 0,-118.9882 142.65,0 0,-33.62111"
         style="fill:#82ca27;fill-opacity:1;fill-rule:nonzero;stroke:none"
         id="path7236"
         inkscape:connector-curvature="0" /><path
         d="m 4233.48,90.4688 c 0,-28.4571 -10.32,-50.6602 -30.96,-66.5782 C 4181.87,7.96875 4153.86,0 4118.46,0 c -38.33,0 -67.82,4.94141 -88.47,14.832 l 0,36.2578 c 13.28,-5.6015 27.73,-10.0312 43.36,-13.2617 15.63,-3.2461 31.11,-4.8672 46.44,-4.8672 25.07,0 43.94,4.75 56.63,14.2696 12.68,9.5078 19.02,22.7383 19.02,39.6992 0,11.2109 -2.26,20.3793 -6.75,27.5393 -4.49,7.152 -12.01,13.75 -22.56,19.793 -10.54,6.047 -26.58,12.898 -48.1,20.57 -30.08,10.77 -51.58,23.508 -64.48,38.258 -12.9,14.75 -19.35,33.992 -19.35,57.73 0,24.918 9.36,44.75 28.08,59.5 18.73,14.75 43.5,22.121 74.33,22.121 32.14,0 61.7,-5.91 88.69,-17.703 l -11.73,-32.726 c -26.69,11.199 -52.64,16.808 -77.85,16.808 -19.91,0 -35.46,-4.281 -46.67,-12.832 -11.21,-8.547 -16.81,-20.429 -16.81,-35.609 0,-11.207 2.07,-20.391 6.19,-27.527 4.13,-7.161 11.1,-13.723 20.91,-19.704 9.8,-5.968 24.8,-12.566 45.01,-19.789 33.91,-12.089 57.25,-25.07 70,-38.918 12.75,-13.859 19.13,-31.863 19.13,-53.9722"
         style="fill:#82ca27;fill-opacity:1;fill-rule:nonzero;stroke:none"
         id="path7238"
         inkscape:connector-curvature="0" /><path
         d="m 4581.83,4.42969 -37.15,0 -65.24,216.53131 c -3.11,9.578 -6.57,21.68 -10.4,36.277 -3.84,14.594 -5.83,23.364 -5.97,26.321 -3.25,-19.469 -8.41,-40.77 -15.49,-63.93 l -63.25,-215.19931 -37.16,0 -86.04,323.35931 39.81,0 51.09,-199.719 c 7.08,-28.019 12.24,-53.3903 15.48,-76.0817 3.98,26.9805 9.89,53.3707 17.7,79.1717 l 57.95,196.629 39.81,0 60.82,-198.391 c 7.08,-22.859 13.06,-48.6597 17.92,-77.4097 2.8,20.9336 8.11,46.4414 15.93,76.5237 l 50.87,199.277 39.81,0 -86.49,-323.35931"
         style="fill:#82ca27;fill-opacity:1;fill-rule:nonzero;stroke:none"
         id="path7240"
         inkscape:connector-curvature="0" /><path
         d="m 4899.23,4.42969 -180.27,0 0,323.35931 180.27,0 0,-33.398 -142.66,0 0,-104.172 134.04,0 0,-33.18 -134.04,0 0,-118.9882 142.66,0 0,-33.62111"
         style="fill:#82ca27;fill-opacity:1;fill-rule:nonzero;stroke:none"
         id="path7242"
         inkscape:connector-curvature="0" /><path
         d="m 5189.19,167.879 c 0,42.172 -10.58,73.941 -31.73,95.332 -21.17,21.379 -52.61,32.059 -94.34,32.059 l -54.63,0 0,-258.3286 45.78,0 c 44.82,0 78.52,11.0195 101.08,33.0703 22.56,22.0391 33.84,54.6603 33.84,97.8673 z m 39.81,1.332 C 5229,115.82 5214.52,75.0195 5185.54,46.7891 5156.56,18.5508 5114.88,4.42969 5060.46,4.42969 l -89.58,0 0,323.35931 99.1,0 c 50.27,0 89.35,-13.93 117.22,-41.801 27.86,-27.867 41.8,-66.789 41.8,-116.777"
         style="fill:#82ca27;fill-opacity:1;fill-rule:nonzero;stroke:none"
         id="path7244"
         inkscape:connector-curvature="0" /><path
         d="m 5481.37,4.42969 -180.27,0 0,323.35931 180.27,0 0,-33.398 -142.66,0 0,-104.172 134.04,0 0,-33.18 -134.04,0 0,-118.9882 142.66,0 0,-33.62111"
         style="fill:#82ca27;fill-opacity:1;fill-rule:nonzero;stroke:none"
         id="path7246"
         inkscape:connector-curvature="0" /><path
         d="m 5805.63,4.42969 -42.92,0 -176.72,271.37931 -1.77,0 c 2.36,-31.84 3.54,-61.039 3.54,-87.59 l 0,-183.78931 -34.73,0 0,323.35931 42.47,0 176.29,-270.2773 1.76,0 c -0.3,3.9766 -0.96,16.7774 -1.99,38.3672 -1.03,21.6011 -1.4,37.0621 -1.1,46.3401 l 0,185.57 35.17,0 0,-323.35931"
         style="fill:#82ca27;fill-opacity:1;fill-rule:nonzero;stroke:none"
         id="path7248"
         inkscape:connector-curvature="0" /></g></g></svg>