<?xml version="1.0" encoding="UTF-8" standalone="no"?>
<!-- Created with Inkscape (http://www.inkscape.org/) -->

<svg
   xmlns:dc="http://purl.org/dc/elements/1.1/"
   xmlns:cc="http://creativecommons.org/ns#"
   xmlns:rdf="http://www.w3.org/1999/02/22-rdf-syntax-ns#"
   xmlns:svg="http://www.w3.org/2000/svg"
   xmlns="http://www.w3.org/2000/svg"
   xmlns:sodipodi="http://sodipodi.sourceforge.net/DTD/sodipodi-0.dtd"
   xmlns:inkscape="http://www.inkscape.org/namespaces/inkscape"
   id="svg10727"
   version="1.1"
   inkscape:version="0.91 r13725"
   xml:space="preserve"
   width="746.95502"
   height="267.69"
   viewBox="0 0 746.95501 267.69"
   sodipodi:docname="nbislogo-blue.svg"><metadata
     id="metadata10733"><rdf:RDF><cc:Work
         rdf:about=""><dc:format>image/svg+xml</dc:format><dc:type
           rdf:resource="http://purl.org/dc/dcmitype/StillImage" /><dc:title></dc:title></cc:Work></rdf:RDF></metadata><defs
     id="defs10731" /><sodipodi:namedview
     pagecolor="#ffffff"
     bordercolor="#666666"
     borderopacity="1"
     objecttolerance="10"
     gridtolerance="10"
     guidetolerance="10"
     inkscape:pageopacity="0"
     inkscape:pageshadow="2"
     inkscape:window-width="699"
     inkscape:window-height="480"
     id="namedview10729"
     showgrid="false"
     fit-margin-top="0"
     fit-margin-left="0"
     fit-margin-right="0"
     fit-margin-bottom="0"
     showborder="false"
     inkscape:zoom="0.51409063"
     inkscape:cx="373.47501"
     inkscape:cy="133.84375"
     inkscape:window-x="0"
     inkscape:window-y="27"
     inkscape:window-maximized="0"
     inkscape:current-layer="g10735" /><g
     id="g10735"
     inkscape:groupmode="layer"
     inkscape:label="ink_ext_XXXXXX"
     transform="matrix(1.25,0,0,-1.25,0,267.69)"><g
       id="g10737"
       transform="scale(0.1,0.1)"><path
         d="m 3679.66,1973.14 0,0 c -8.5,16.79 -25.71,27.37 -44.53,27.37 l -40.67,0 c -20.5,0 -33.82,-21.58 -24.63,-39.9 l 68,-135.61 62.1,-105.64 c 48.75,-82.92 114.78,-154.38 193.6,-209.52 L 4297.81,1227 c 54.97,-38.46 101.73,-87.49 137.54,-144.24 l 131.95,-212.041 19.32,170.821 -106.35,189.66 c -30.42,54.24 -73.23,100.52 -124.94,135.06 l -437.84,292.45 -42.4,38.66 c -68.58,62.52 -125.2,136.99 -167.1,219.78 l -28.33,55.99"
         style="fill:#255991;fill-opacity:1;fill-rule:nonzero;stroke:none"
         id="path10739"
         inkscape:connector-curvature="0" /><path
         d="m 3919.37,388.32 0,0 -146.12,133.231 -87.76,214.937 3.2,82.403 -42.63,-147.27 22.98,-90.062 C 3695.16,479.18 3758.82,390.352 3847.39,332.73 L 4229.95,83.8203 c 37.6,-24.4609 81.5,-37.4883 126.35,-37.4883 l 15.75,0 c 39.75,0 53.74,52.7071 19.22,72.43 l -471.9,269.558"
         style="fill:#255991;fill-opacity:1;fill-rule:nonzero;stroke:none"
         id="path10741"
         inkscape:connector-curvature="0" /><path
         d="m 4558.62,1711.66 0,0 1.68,-3.16 c 7.47,-14.05 9.03,-30.5 4.35,-45.71 l -16.56,-53.83 c -4.94,-16.06 -25.92,-19.91 -36.24,-6.64 l -218.71,281.19 c -23.31,29.97 -0.64,73.47 37.28,71.53 l 68.03,-3.49 c 20.85,-1.07 39.61,-13.01 49.4,-31.44 l 110.77,-208.45"
         style="fill:#255991;fill-opacity:1;fill-rule:nonzero;stroke:none"
         id="path10743"
         inkscape:connector-curvature="0" /><path
         d="m 4439.34,1857.07 0,0 c 11.55,-21.75 -5.85,-47.57 -30.34,-45.04 l -320.23,33.04 c -2.09,0.22 -4.2,0.22 -6.29,0 l -358.89,-36.76 c -12.93,-1.32 -25.3,5.62 -30.91,17.35 l -37.79,79.13 c -10.9,22.82 8.86,48.32 33.68,43.47 l 384.8,-75.25 c 3.07,-0.6 6.2,-0.73 9.3,-0.38 l 300.16,33.29 c 17.43,1.94 34.28,-6.97 42.51,-22.46 l 14,-26.39"
         style="fill:#ef8729;fill-opacity:1;fill-rule:nonzero;stroke:none"
         id="path10745"
         inkscape:connector-curvature="0" /><path
         d="m 4537.46,1645.38 0,0 c 2.41,-3.99 3.88,-8.48 4.31,-13.12 l 0,0 c 1.76,-19.31 -14.54,-35.42 -33.83,-33.42 l -266.35,27.64 c -1.9,0.2 -3.8,0.22 -5.7,0.06 l -339.86,-27.93 c -8.54,-0.7 -17,2.19 -23.32,7.99 l -29.97,27.47 c -21.68,19.89 -5.78,55.95 23.53,53.34 l 362.55,-32.22 c 3.2,-0.29 6.43,-0.07 9.57,0.65 l 223.16,50.91 c 20.36,4.64 41.4,-4.29 52.2,-22.15 l 23.71,-39.22"
         style="fill:#ef8729;fill-opacity:1;fill-rule:nonzero;stroke:none"
         id="path10747"
         inkscape:connector-curvature="0" /><path
         d="m 4124.82,1465.41 183.54,-30.62 c 5.22,-0.88 10.58,-0.39 15.56,1.42 l 75.3,27.33 c 24.37,8.84 48.08,-14.56 39.57,-39.05 l -1.47,-4.21 c -4.6,-13.22 -17.53,-21.67 -31.48,-20.57 l -82.99,6.52 c -4.3,0.34 -8.63,-0.23 -12.69,-1.67 l -97.48,-34.52 c -11.26,-3.99 -23.81,-1.1 -32.19,7.41 l -66.38,67.35 c -8.3,8.43 -0.96,22.56 10.71,20.61"
         style="fill:#ef8729;fill-opacity:1;fill-rule:nonzero;stroke:none"
         id="path10749"
         inkscape:connector-curvature="0" /><path
         d="m 3730.02,530.059 0,0 c 4.82,-14.75 19.86,-23.598 35.1,-20.661 l 190.58,36.864 c 2.47,0.476 4.99,0.648 7.5,0.519 l 141.37,-7.621 c 12.17,-0.66 23.58,5.93 29.1,16.801 l 4.99,9.828 c 11.93,23.512 -9.28,50.16 -34.87,43.801 l -138.45,-34.43 c -3.91,-0.969 -7.98,-1.16 -11.96,-0.57 l -219.93,32.762 c -13.86,2.07 -25.04,-11.172 -20.69,-24.481 l 17.26,-52.812"
         style="fill:#ef8729;fill-opacity:1;fill-rule:nonzero;stroke:none"
         id="path10751"
         inkscape:connector-curvature="0" /><path
         d="m 4378.07,1221.4 -47.78,-23.21 c -4.32,-2.1 -9.07,-3.15 -13.87,-3.08 l -195.4,2.71 c -14.44,0.2 -27.08,-9.67 -30.39,-23.73 l -10.5,-44.63 c -5.56,-23.66 17.21,-44.13 40.14,-36.09 l 204.04,71.52 c 5.14,1.8 10.66,2.21 16,1.18 l 49.84,-9.59 c 26.47,-5.1 46.24,23.9 31.81,46.68 l -4.44,7.02 c -8.38,13.23 -25.36,18.06 -39.45,11.22"
         style="fill:#ef8729;fill-opacity:1;fill-rule:nonzero;stroke:none"
         id="path10753"
         inkscape:connector-curvature="0" /><path
         d="m 4540.82,999.52 0,0 c 7.58,-20.52 -8.07,-42.168 -29.94,-41.411 l -243.68,8.461 c -2.34,0.078 -4.69,-0.109 -7,-0.558 l -397.17,-78.024 c -26.77,-5.258 -46.64,24.332 -31.63,47.121 l 52.32,79.451 c 6.35,9.65 17.58,14.93 29.07,13.66 l 346.31,-38.13 c 3.03,-0.34 6.09,-0.219 9.09,0.351 l 232.04,43.839 c 14.98,2.83 29.81,-5.57 35.09,-19.87 l 5.5,-14.89"
         style="fill:#ef8729;fill-opacity:1;fill-rule:nonzero;stroke:none"
         id="path10755"
         inkscape:connector-curvature="0" /><path
         d="m 4213.87,185.371 0,0 c 25.85,-18.043 11.11,-58.652 -20.29,-55.902 l -211.15,15.121 c -2.5,-0.078 -4.99,-0.168 -7.49,-0.25 l -230.46,-32.449 c -25.79,-3.629 -44.15,24.41 -30.51,46.597 l 27.04,43.953 c 7.11,11.559 20.94,17.09 34.06,13.637 l 196.32,-51.758 c 4.95,-1.3 10.15,-1.351 15.13,-0.14 l 189.95,32.199 c 11.14,1.891 22.58,-0.668 31.84,-7.141 l 5.56,-3.867"
         style="fill:#ef8729;fill-opacity:1;fill-rule:nonzero;stroke:none"
         id="path10757"
         inkscape:connector-curvature="0" /><path
         d="m 4440.56,851.371 -59.14,-118.269 c -5.74,-11.481 -18.01,-18.192 -30.77,-16.84 l -321.92,34.199 c -2.7,0.289 -5.43,0.211 -8.11,-0.211 l -313.48,-50.16 c -25.62,-4.102 -44.51,23.39 -31.48,45.832 l 18.55,31.957 c 5.86,10.101 16.93,16.019 28.58,15.269 l 298.04,-19.117 c 2.54,-0.16 5.1,-0.011 7.61,0.457 l 412.12,76.883 0,0"
         style="fill:#ef8729;fill-opacity:1;fill-rule:nonzero;stroke:none"
         id="path10759"
         inkscape:connector-curvature="0" /><path
         d="m 4500.86,1577.65 66.44,101.37 -3.64,-151.91 c -0.39,-16.23 -5.95,-31.9 -15.87,-44.73 l -68.95,-89.2 c -50.41,-65.21 -110.18,-122.62 -177.37,-170.37 L 3891.83,931.699 c -25.55,-18.16 -48.98,-39.148 -69.84,-62.558 0,0 -141.16,-143.282 -175.93,-197.52 5.5,28.059 6.95,43.238 6.95,43.238 13.8,85.93 49.19,166.942 102.86,235.45 l 34.08,43.5 c 26.87,34.291 58.75,64.341 94.57,89.131 l 401.74,277.97 c 31.85,22.03 61.58,46.96 88.84,74.47 l 58.57,59.11 c 25.15,25.38 47.66,53.24 67.19,83.16 l 0,0"
         style="fill:#3f9dc7;fill-opacity:1;fill-rule:nonzero;stroke:none"
         id="path10761"
         inkscape:connector-curvature="0" /><path
         d="M 4232.2,702.84 3962.54,516.262 C 3875.34,455.922 3800.74,379.16 3742.92,290.27 L 3590.87,56.4883 c -6.78,-10.418 0.7,-24.207 13.13,-24.207 l 71.02,0 c 17.54,0 33.78,9.2187 42.77,24.2773 l 36.72,61.5234 c 65.2,109.227 152.41,203.68 256.09,277.367 l 277.97,197.531 c 76.01,54.02 147.05,114.7 212.27,181.34 l 45.54,46.512 c 21.37,21.84 33.85,50.848 35,81.387 l 5.24,139.321 -0.39,-0.66 C 4560.46,981.238 4533.44,954 4506.9,924.891 l -11.34,-11.371 c -8.53,-8.559 -17.56,-16.598 -27.04,-24.079 L 4232.2,702.84"
         style="fill:#3f9dc7;fill-opacity:1;fill-rule:nonzero;stroke:none"
         id="path10763"
         inkscape:connector-curvature="0" /><path
         d="m 1848.01,0 -561.38,0 -906.196,1575.86 -12.825,0 c 18.032,-278.34 27.075,-476.85 27.075,-595.579 L 394.684,0 0,0 l 0,2083.09 557.109,0 904.771,-1560.18 9.97,0 c -14.25,270.711 -21.37,462.11 -21.37,574.2 l 0,985.98 397.53,0 0,-2083.09"
         style="fill:#3f9dc7;fill-opacity:1;fill-rule:nonzero;stroke:none"
         id="path10765"
         inkscape:connector-curvature="0" /><path
         d="m 2510.56,907.609 0,-542.859 287.82,0 c 121.58,0 211.35,23.27 269.29,69.82 57.93,46.532 86.92,117.758 86.92,213.719 0,172.871 -123.5,259.32 -370.46,259.32 l -273.57,0 z m 0,350.501 256.48,0 c 119.68,0 206.35,18.53 260.03,55.58 53.65,37.04 80.5,98.31 80.5,183.8 0,79.79 -29.21,137 -87.63,171.69 -58.42,34.66 -150.81,52.01 -277.13,52.01 l -232.25,0 0,-463.08 z m -441.69,824.98 648.29,0 c 295.41,0 509.85,-42.02 643.32,-126.09 133.44,-84.06 200.19,-217.78 200.19,-401.1 0,-124.44 -29.21,-226.54 -87.63,-306.33 -58.42,-79.79 -136.08,-127.77 -232.96,-143.91 l 0,-14.25 c 132.01,-29.46 227.26,-84.56 285.67,-165.281 58.42,-80.738 87.63,-188.078 87.63,-322.008 0,-189.992 -68.63,-338.18 -205.88,-444.539 C 3270.22,53.1797 3083.82,0 2848.25,0 l -779.38,0 0,2083.09"
         style="fill:#3f9dc7;fill-opacity:1;fill-rule:nonzero;stroke:none"
         id="path10767"
         inkscape:connector-curvature="0" /><path
         d="m 5975.64,606.969 c 0,-188.078 -67.68,-336.25 -203.04,-444.539 C 5637.23,54.1406 5448.92,0 5207.65,0 4985.38,0 4788.76,41.7891 4617.78,125.391 l 0,410.347 c 140.57,-62.699 259.54,-106.867 356.91,-132.519 97.36,-25.637 186.42,-38.457 267.17,-38.457 96.87,0 171.19,18.519 222.98,55.558 51.75,37.051 77.64,92.121 77.64,165.282 0,40.828 -11.39,77.168 -34.19,109 -22.79,31.808 -56.28,62.449 -100.45,91.91 -44.17,29.418 -134.17,76.437 -270,141.039 -127.3,59.847 -222.76,117.319 -286.39,172.419 -63.65,55.07 -114.48,119.19 -152.46,192.35 -38,73.13 -56.99,158.63 -56.99,256.46 0,184.27 62.45,329.14 187.36,434.58 124.9,105.43 297.54,158.16 517.93,158.16 108.28,0 211.59,-12.83 309.9,-38.48 98.31,-25.64 201.13,-61.76 308.48,-108.29 l -142.48,-343.37 c -111.15,45.58 -203.04,77.4 -275.71,95.46 -72.67,18.03 -144.16,27.06 -214.44,27.06 -83.6,0 -147.72,-19.47 -192.35,-58.42 -44.66,-38.95 -66.97,-89.75 -66.97,-152.45 0,-38.96 9.02,-72.91 27.07,-101.88 18.04,-28.97 46.78,-56.98 86.21,-84.06 39.41,-27.06 132.72,-75.76 279.98,-146.04 194.7,-93.1 328.17,-186.43 400.37,-279.98 72.18,-93.57 108.29,-208.269 108.29,-344.101"
         style="fill:#3f9dc7;fill-opacity:1;fill-rule:nonzero;stroke:none"
         id="path10769"
         inkscape:connector-curvature="0" /></g></g></svg>