<?xml version="1.0" encoding="UTF-8" standalone="no"?>
<!-- Created with Inkscape (http://www.inkscape.org/) -->

<svg
   xmlns:dc="http://purl.org/dc/elements/1.1/"
   xmlns:cc="http://creativecommons.org/ns#"
   xmlns:rdf="http://www.w3.org/1999/02/22-rdf-syntax-ns#"
   xmlns:svg="http://www.w3.org/2000/svg"
   xmlns="http://www.w3.org/2000/svg"
   xmlns:sodipodi="http://sodipodi.sourceforge.net/DTD/sodipodi-0.dtd"
   xmlns:inkscape="http://www.inkscape.org/namespaces/inkscape"
   id="svg7844"
   version="1.1"
   inkscape:version="0.91 r13725"
   xml:space="preserve"
   width="748.30377"
   height="386.99124"
   viewBox="0 0 748.30377 386.99124"
   sodipodi:docname="nbislogo-text-green.svg"><metadata
     id="metadata7850"><rdf:RDF><cc:Work
         rdf:about=""><dc:format>image/svg+xml</dc:format><dc:type
           rdf:resource="http://purl.org/dc/dcmitype/StillImage" /><dc:title></dc:title></cc:Work></rdf:RDF></metadata><defs
     id="defs7848" /><sodipodi:namedview
     pagecolor="#ffffff"
     bordercolor="#000000"
     borderopacity="0"
     objecttolerance="10"
     gridtolerance="10"
     guidetolerance="10"
     inkscape:pageopacity="0"
     inkscape:pageshadow="2"
     inkscape:window-width="1178"
     inkscape:window-height="639"
     id="namedview7846"
     showgrid="false"
     fit-margin-top="0"
     fit-margin-left="0"
     fit-margin-right="0"
     fit-margin-bottom="0"
     inkscape:zoom="0.51316318"
     inkscape:cx="374.14999"
     inkscape:cy="193.49376"
     inkscape:window-x="0"
     inkscape:window-y="27"
     inkscape:window-maximized="0"
     inkscape:current-layer="g7852" /><g
     id="g7852"
     inkscape:groupmode="layer"
     inkscape:label="ink_ext_XXXXXX"
     transform="matrix(1.25,0,0,-1.25,0,386.99125)"><g
       id="g7854"
       transform="scale(0.1,0.1)"><path
         d="m 3681.32,2927.47 0,0 c -8.5,16.8 -25.73,27.39 -44.55,27.39 l -40.69,0 c -20.51,0 -33.83,-21.59 -24.64,-39.92 l 68.03,-135.67 62.13,-105.68 c 48.77,-82.96 114.83,-154.46 193.68,-209.63 L 4299.74,2181 c 55.01,-38.48 101.78,-87.54 137.61,-144.31 l 132.01,-212.14 19.33,170.91 -106.4,189.74 c -30.43,54.26 -73.26,100.57 -125,135.12 l -438.03,292.58 -42.43,38.68 c -68.6,62.55 -125.24,137.05 -167.16,219.88 l -28.35,56.01"
         style="fill:#487a2d;fill-opacity:1;fill-rule:nonzero;stroke:none"
         id="path7856"
         inkscape:connector-curvature="0" /><path
         d="m 3921.14,1341.94 0,0 -146.19,133.29 -87.8,215.03 3.2,82.44 -42.64,-147.33 22.98,-90.1 c 26.13,-102.43 89.82,-191.3 178.43,-248.95 l 382.74,-249.02 c 37.62,-24.47 81.53,-37.499 126.41,-37.499 l 15.75,0 c 39.77,0 53.77,52.729 19.23,72.449 l -472.11,269.69"
         style="fill:#487a2d;fill-opacity:1;fill-rule:nonzero;stroke:none"
         id="path7858"
         inkscape:connector-curvature="0" /><path
         d="m 4560.68,2665.88 0,0 1.68,-3.16 c 7.47,-14.06 9.03,-30.52 4.35,-45.73 l -16.57,-53.86 c -4.94,-16.07 -25.94,-19.92 -36.26,-6.64 l -218.8,281.31 c -23.32,29.99 -0.64,73.5 37.3,71.56 l 68.06,-3.49 c 20.85,-1.07 39.62,-13.01 49.42,-31.45 l 110.82,-208.54"
         style="fill:#487a2d;fill-opacity:1;fill-rule:nonzero;stroke:none"
         id="path7860"
         inkscape:connector-curvature="0" /><path
         d="m 4441.35,2811.35 0,0 c 11.55,-21.75 -5.86,-47.59 -30.36,-45.06 l -320.37,33.06 c -2.1,0.21 -4.21,0.21 -6.3,0 l -359.05,-36.78 c -12.94,-1.32 -25.32,5.63 -30.92,17.36 l -37.81,79.16 c -10.9,22.84 8.86,48.34 33.69,43.49 l 384.98,-75.28 c 3.06,-0.6 6.2,-0.73 9.3,-0.39 l 300.3,33.31 c 17.44,1.94 34.29,-6.97 42.52,-22.47 l 14.02,-26.4"
         style="fill:#ef8729;fill-opacity:1;fill-rule:nonzero;stroke:none"
         id="path7862"
         inkscape:connector-curvature="0" /><path
         d="m 4539.5,2599.56 0,0 c 2.42,-3.99 3.89,-8.48 4.32,-13.12 l 0,0 c 1.76,-19.31 -14.55,-35.43 -33.84,-33.43 l -266.48,27.65 c -1.89,0.2 -3.8,0.22 -5.7,0.06 l -340.01,-27.95 c -8.55,-0.7 -17.01,2.2 -23.33,8 l -29.98,27.48 c -21.7,19.89 -5.79,55.97 23.53,53.37 l 362.71,-32.24 c 3.21,-0.29 6.44,-0.07 9.58,0.65 l 223.26,50.93 c 20.37,4.65 41.42,-4.28 52.22,-22.16 l 23.72,-39.24"
         style="fill:#ef8729;fill-opacity:1;fill-rule:nonzero;stroke:none"
         id="path7864"
         inkscape:connector-curvature="0" /><path
         d="m 4126.68,2419.52 183.62,-30.64 c 5.22,-0.88 10.59,-0.38 15.57,1.42 l 75.34,27.34 c 24.37,8.84 48.1,-14.57 39.58,-39.06 l -1.47,-4.22 c -4.6,-13.22 -17.54,-21.68 -31.49,-20.58 l -83.04,6.53 c -4.3,0.34 -8.62,-0.23 -12.69,-1.67 l -97.52,-34.54 c -11.26,-3.99 -23.82,-1.1 -32.21,7.41 l -66.4,67.38 c -8.31,8.44 -0.97,22.58 10.71,20.63"
         style="fill:#ef8729;fill-opacity:1;fill-rule:nonzero;stroke:none"
         id="path7866"
         inkscape:connector-curvature="0" /><path
         d="m 3731.7,1483.74 0,0 c 4.82,-14.75 19.87,-23.61 35.11,-20.66 l 190.67,36.87 c 2.47,0.48 4.99,0.65 7.51,0.52 l 141.43,-7.62 c 12.18,-0.66 23.6,5.93 29.11,16.81 l 5,9.83 c 11.93,23.52 -9.29,50.18 -34.89,43.82 l -138.51,-34.44 c -3.91,-0.98 -7.98,-1.17 -11.97,-0.58 l -220.03,32.78 c -13.86,2.07 -25.04,-11.17 -20.69,-24.49 l 17.26,-52.84"
         style="fill:#ef8729;fill-opacity:1;fill-rule:nonzero;stroke:none"
         id="path7868"
         inkscape:connector-curvature="0" /><path
         d="m 4380.05,2175.39 -47.81,-23.21 c -4.32,-2.1 -9.07,-3.16 -13.88,-3.09 l -195.48,2.71 c -14.45,0.21 -27.09,-9.67 -30.4,-23.73 l -10.51,-44.65 c -5.56,-23.67 17.21,-44.15 40.16,-36.11 l 204.13,71.55 c 5.14,1.8 10.66,2.21 16.01,1.18 l 49.86,-9.59 c 26.48,-5.11 46.26,23.91 31.83,46.7 l -4.45,7.02 c -8.38,13.24 -25.37,18.07 -39.46,11.22"
         style="fill:#ef8729;fill-opacity:1;fill-rule:nonzero;stroke:none"
         id="path7870"
         inkscape:connector-curvature="0" /><path
         d="m 4542.87,1953.42 0,0 c 7.58,-20.53 -8.08,-42.2 -29.95,-41.44 l -243.79,8.47 c -2.35,0.08 -4.7,-0.11 -7.01,-0.56 l -397.34,-78.06 c -26.79,-5.26 -46.67,24.35 -31.65,47.15 l 52.34,79.48 c 6.36,9.65 17.59,14.93 29.08,13.67 l 346.47,-38.15 c 3.03,-0.34 6.1,-0.22 9.09,0.35 l 232.15,43.86 c 14.99,2.83 29.83,-5.57 35.11,-19.88 l 5.5,-14.89"
         style="fill:#ef8729;fill-opacity:1;fill-rule:nonzero;stroke:none"
         id="path7872"
         inkscape:connector-curvature="0" /><path
         d="m 4215.77,1138.89 0,0 c 25.87,-18.04 11.12,-58.67 -20.29,-55.92 l -211.25,15.13 c -2.51,-0.08 -4.99,-0.17 -7.5,-0.25 l -230.57,-32.47 c -25.8,-3.63 -44.17,24.43 -30.51,46.62 l 27.05,43.98 c 7.11,11.56 20.95,17.1 34.07,13.64 l 196.41,-51.78 c 4.95,-1.31 10.16,-1.35 15.14,-0.14 l 190.04,32.22 c 11.14,1.88 22.58,-0.68 31.85,-7.15 l 5.56,-3.88"
         style="fill:#ef8729;fill-opacity:1;fill-rule:nonzero;stroke:none"
         id="path7874"
         inkscape:connector-curvature="0" /><path
         d="m 4442.56,1805.2 -59.16,-118.32 c -5.74,-11.49 -18.02,-18.21 -30.79,-16.85 l -322.06,34.21 c -2.7,0.29 -5.43,0.22 -8.12,-0.21 l -313.62,-50.18 c -25.63,-4.1 -44.52,23.41 -31.49,45.86 l 18.55,31.97 c 5.87,10.1 16.94,16.02 28.6,15.27 l 298.17,-19.13 c 2.55,-0.16 5.11,0 7.62,0.46 l 412.3,76.92 0,0"
         style="fill:#ef8729;fill-opacity:1;fill-rule:nonzero;stroke:none"
         id="path7876"
         inkscape:connector-curvature="0" /><path
         d="m 4502.89,2531.8 66.47,101.42 -3.64,-151.98 c -0.39,-16.23 -5.96,-31.91 -15.88,-44.76 l -68.98,-89.23 c -50.43,-65.24 -110.23,-122.68 -177.45,-170.44 l -409.82,-291.24 c -25.57,-18.18 -49.01,-39.17 -69.87,-62.6 0,0 -141.23,-143.34 -176.01,-197.6 5.5,28.07 6.94,43.26 6.94,43.26 13.81,85.96 49.22,167.02 102.92,235.56 l 34.09,43.52 c 26.88,34.3 58.77,64.36 94.61,89.16 l 401.93,278.1 c 31.85,22.04 61.6,46.98 88.87,74.5 l 58.6,59.14 c 25.16,25.39 47.68,53.27 67.22,83.19 l 0,0"
         style="fill:#82ca27;fill-opacity:1;fill-rule:nonzero;stroke:none"
         id="path7878"
         inkscape:connector-curvature="0" /><path
         d="m 4234.11,1656.6 -269.78,-186.66 c -87.24,-60.37 -161.88,-137.17 -219.72,-226.1 l -152.12,-233.88 c -6.79,-10.429 0.7,-24.222 13.14,-24.222 l 71.05,0 c 17.54,0 33.79,9.231 42.79,24.292 l 36.73,61.55 c 65.23,109.27 152.48,203.77 256.21,277.49 l 278.1,197.63 c 76.04,54.03 147.11,114.75 212.36,181.41 l 45.56,46.54 c 21.38,21.84 33.87,50.87 35.02,81.42 l 5.24,139.39 -0.39,-0.66 c -25.78,-59.67 -52.82,-86.92 -79.37,-116.05 l -11.35,-11.38 c -8.53,-8.56 -17.56,-16.6 -27.05,-24.09 L 4234.11,1656.6"
         style="fill:#82ca27;fill-opacity:1;fill-rule:nonzero;stroke:none"
         id="path7880"
         inkscape:connector-curvature="0" /><path
         d="m 1848.84,953.441 -561.63,0 -906.605,1576.579 -12.828,0 c 18.036,-278.47 27.082,-477.07 27.082,-595.85 l 0,-980.729 -394.859,0 0,2084.029 557.359,0 905.181,-1560.88 9.98,0 c -14.26,270.83 -21.39,462.31 -21.39,574.46 l 0,986.42 397.71,0 0,-2084.029"
         style="fill:#82ca27;fill-opacity:1;fill-rule:nonzero;stroke:none"
         id="path7882"
         inkscape:connector-curvature="0" /><path
         d="m 2511.69,1861.47 0,-543.12 287.95,0 c 121.63,0 211.44,23.29 269.41,69.86 57.96,46.55 86.96,117.82 86.96,213.81 0,172.96 -123.55,259.45 -370.62,259.45 l -273.7,0 z m 0,350.66 256.59,0 c 119.74,0 206.45,18.53 260.15,55.6 53.68,37.06 80.54,98.36 80.54,183.88 0,79.82 -29.22,137.07 -87.67,171.77 -58.44,34.67 -150.88,52.03 -277.25,52.03 l -232.36,0 0,-463.28 z m -441.89,825.34 648.59,0 c 295.54,0 510.07,-42.04 643.6,-126.14 133.51,-84.1 200.28,-217.88 200.28,-401.28 0,-124.51 -29.22,-226.64 -87.66,-306.47 -58.45,-79.83 -136.14,-127.83 -233.07,-143.98 l 0,-14.26 c 132.08,-29.46 227.36,-84.59 285.8,-165.34 58.45,-80.79 87.67,-188.17 87.67,-322.16 0,-190.08 -68.66,-338.33 -205.97,-444.75 -137.35,-106.44 -323.83,-159.649 -559.51,-159.649 l -779.73,0 0,2084.029"
         style="fill:#82ca27;fill-opacity:1;fill-rule:nonzero;stroke:none"
         id="path7884"
         inkscape:connector-curvature="0" /><path
         d="m 5978.34,1560.69 c 0,-188.17 -67.72,-336.4 -203.13,-444.74 C 5639.78,1007.61 5451.38,953.441 5210,953.441 c -222.37,0 -419.08,41.809 -590.14,125.449 l 0,410.53 c 140.63,-62.73 259.66,-106.91 357.08,-132.57 97.4,-25.66 186.5,-38.48 267.28,-38.48 96.92,0 171.27,18.53 223.08,55.59 51.78,37.06 77.68,92.15 77.68,165.35 0,40.85 -11.4,77.2 -34.2,109.04 -22.81,31.83 -56.32,62.49 -100.5,91.96 -44.19,29.44 -134.23,76.48 -270.12,141.11 -127.36,59.87 -222.87,117.36 -286.53,172.49 -63.67,55.09 -114.52,119.25 -152.52,192.44 -38.02,73.16 -57.01,158.69 -57.01,256.57 0,184.36 62.47,329.29 187.44,434.78 124.96,105.48 297.68,158.23 518.16,158.23 108.33,0 211.68,-12.84 310.04,-38.49 98.36,-25.66 201.22,-61.79 308.62,-108.34 l -142.55,-343.53 c -111.19,45.61 -203.13,77.43 -275.83,95.5 -72.7,18.04 -144.22,27.08 -214.53,27.08 -83.64,0 -147.79,-19.49 -192.44,-58.45 -44.68,-38.97 -67.01,-89.79 -67.01,-152.52 0,-38.97 9.03,-72.95 27.1,-101.92 18.03,-28.99 46.79,-57.01 86.24,-84.1 39.42,-27.08 132.78,-75.8 280.1,-146.11 194.79,-93.14 328.32,-186.51 400.56,-280.11 72.21,-93.61 108.34,-208.36 108.34,-344.25"
         style="fill:#82ca27;fill-opacity:1;fill-rule:nonzero;stroke:none"
         id="path7886"
         inkscape:connector-curvature="0" /><path
         d="m 252.582,439.039 -42.902,0 -176.723,271.383 -1.7734,0 c 2.3555,-31.852 3.543,-61.043 3.543,-87.594 l 0,-183.789 -34.7266,0 0,323.359 42.4648,0 176.2812,-270.277 1.77,0 c -0.297,3.981 -0.961,16.777 -1.993,38.367 -1.035,21.602 -1.402,37.063 -1.109,46.34 l 0,185.57 35.168,0 0,-323.359"
         style="fill:#ef8729;fill-opacity:1;fill-rule:nonzero;stroke:none"
         id="path7888"
         inkscape:connector-curvature="0" /><path
         d="m 492.785,575.73 -37.601,100.192 c -4.868,12.68 -9.883,28.238 -15.039,46.668 -3.247,-14.16 -7.887,-29.719 -13.934,-46.668 l -38.047,-100.192 104.621,0 z m 51.981,-136.691 -40.258,102.84 -129.61,0 -39.812,-102.84 -38.047,0 127.844,324.691 31.629,0 127.179,-324.691 -38.925,0"
         style="fill:#ef8729;fill-opacity:1;fill-rule:nonzero;stroke:none"
         id="path7890"
         inkscape:connector-curvature="0" /><path
         d="m 727.68,439.039 -37.602,0 0,289.961 -102.402,0 0,33.398 242.41,0 0,-33.398 -102.406,0 0,-289.961"
         style="fill:#ef8729;fill-opacity:1;fill-rule:nonzero;stroke:none"
         id="path7892"
         inkscape:connector-curvature="0" /><path
         d="m 878.742,439.039 37.6016,0 0,323.359 -37.6016,0 0,-323.359 z"
         style="fill:#ef8729;fill-opacity:1;fill-rule:nonzero;stroke:none"
         id="path7894"
         inkscape:connector-curvature="0" /><path
         d="m 1028.04,601.172 c 0,-43.801 9.32,-77.024 27.98,-99.652 18.65,-22.629 45.74,-33.95 81.28,-33.95 35.83,0 62.88,11.282 81.17,33.84 18.29,22.551 27.43,55.809 27.43,99.762 0,43.488 -9.11,76.476 -27.32,98.969 -18.21,22.48 -45.16,33.73 -80.84,33.73 -35.83,0 -63.07,-11.32 -81.72,-33.961 -18.66,-22.629 -27.98,-55.551 -27.98,-98.738 z m 257.67,0 c 0,-51.774 -13.09,-92.461 -39.26,-122.102 -26.17,-29.64 -62.56,-44.461 -109.15,-44.461 -47.63,0 -84.38,14.571 -110.26,43.68 -25.88,29.129 -38.813,70.231 -38.813,123.313 0,52.636 12.973,93.449 38.923,122.429 25.95,28.969 62.82,43.457 110.59,43.457 46.45,0 82.72,-14.75 108.82,-44.226 26.1,-29.5 39.15,-70.203 39.15,-122.09"
         style="fill:#ef8729;fill-opacity:1;fill-rule:nonzero;stroke:none"
         id="path7896"
         inkscape:connector-curvature="0" /><path
         d="m 1610.4,439.039 -42.9,0 -176.72,271.383 -1.78,0 c 2.36,-31.852 3.55,-61.043 3.55,-87.594 l 0,-183.789 -34.73,0 0,323.359 42.46,0 176.28,-270.277 1.78,0 c -0.3,3.981 -0.97,16.777 -2,38.367 -1.03,21.602 -1.4,37.063 -1.1,46.34 l 0,185.57 35.16,0 0,-323.359"
         style="fill:#ef8729;fill-opacity:1;fill-rule:nonzero;stroke:none"
         id="path7898"
         inkscape:connector-curvature="0" /><path
         d="M 1850.61,575.73 1813,675.922 c -4.86,12.68 -9.88,28.238 -15.04,46.668 -3.24,-14.16 -7.88,-29.719 -13.93,-46.668 l -38.05,-100.192 104.63,0 z m 51.97,-136.691 -40.25,102.84 -129.61,0 -39.81,-102.84 -38.05,0 127.84,324.691 31.63,0 127.18,-324.691 -38.93,0"
         style="fill:#ef8729;fill-opacity:1;fill-rule:nonzero;stroke:none"
         id="path7900"
         inkscape:connector-curvature="0" /><path
         d="m 1985.97,439.039 0,323.359 37.6,0 0,-289.308 142.66,0 0,-34.051 -180.26,0"
         style="fill:#ef8729;fill-opacity:1;fill-rule:nonzero;stroke:none"
         id="path7902"
         inkscape:connector-curvature="0" /><path
         d="m 2376.35,592.09 0,-120.981 67.46,0 c 26.1,0 45.74,5.051 58.94,15.153 13.2,10.097 19.8,25.91 19.8,47.437 0,20.063 -6.75,34.801 -20.24,44.242 -13.49,9.438 -34.03,14.149 -61.6,14.149 l -64.36,0 z m 0,31.851 61.93,0 c 26.54,0 45.63,4.168 57.29,12.5 11.64,8.329 17.47,22.368 17.47,42.129 0,18.141 -6.49,31.219 -19.47,39.258 -12.97,8.031 -33.62,12.051 -61.93,12.051 l -55.29,0 0,-105.938 z m -37.6,138.457 91.35,0 c 42.9,0 73.94,-6.418 93.11,-19.238 19.17,-12.832 28.75,-33.109 28.75,-60.832 0,-19.156 -5.34,-34.976 -16.03,-47.437 -10.69,-12.461 -26.29,-20.532 -46.78,-24.219 l 0,-2.211 c 49.1,-8.41 73.65,-34.211 73.65,-77.41 0,-28.903 -9.77,-51.473 -29.3,-67.692 -19.54,-16.218 -46.86,-24.32 -81.95,-24.32 l -112.8,0 0,323.359"
         style="fill:#ef8729;fill-opacity:1;fill-rule:nonzero;stroke:none"
         id="path7904"
         inkscape:connector-curvature="0" /><path
         d="m 2632.25,439.039 37.6016,0 0,323.359 -37.6016,0 0,-323.359 z"
         style="fill:#ef8729;fill-opacity:1;fill-rule:nonzero;stroke:none"
         id="path7906"
         inkscape:connector-curvature="0" /><path
         d="m 2781.55,601.172 c 0,-43.801 9.32,-77.024 27.98,-99.652 18.65,-22.629 45.74,-33.95 81.28,-33.95 35.83,0 62.88,11.282 81.17,33.84 18.28,22.551 27.42,55.809 27.42,99.762 0,43.488 -9.1,76.476 -27.3,98.969 -18.22,22.48 -45.17,33.73 -80.85,33.73 -35.83,0 -63.07,-11.32 -81.72,-33.961 -18.66,-22.629 -27.98,-55.551 -27.98,-98.738 z m 257.67,0 c 0,-51.774 -13.09,-92.461 -39.26,-122.102 -26.17,-29.64 -62.56,-44.461 -109.15,-44.461 -47.63,0 -84.38,14.571 -110.26,43.68 -25.88,29.129 -38.82,70.231 -38.82,123.313 0,52.636 12.98,93.449 38.93,122.429 25.95,28.969 62.82,43.457 110.59,43.457 46.45,0 82.72,-14.75 108.83,-44.226 26.09,-29.5 39.14,-70.203 39.14,-122.09"
         style="fill:#ef8729;fill-opacity:1;fill-rule:nonzero;stroke:none"
         id="path7908"
         inkscape:connector-curvature="0" /><path
         d="m 3111.32,439.039 37.6094,0 0,323.359 -37.6094,0 0,-323.359 z"
         style="fill:#ef8729;fill-opacity:1;fill-rule:nonzero;stroke:none"
         id="path7910"
         inkscape:connector-curvature="0" /><path
         d="m 3490.2,439.039 -42.91,0 -176.72,271.383 -1.77,0 c 2.36,-31.852 3.54,-61.043 3.54,-87.594 l 0,-183.789 -34.73,0 0,323.359 42.47,0 176.29,-270.277 1.76,0 c -0.3,3.981 -0.96,16.777 -1.99,38.367 -1.03,21.602 -1.4,37.063 -1.1,46.34 l 0,185.57 35.16,0 0,-323.359"
         style="fill:#ef8729;fill-opacity:1;fill-rule:nonzero;stroke:none"
         id="path7912"
         inkscape:connector-curvature="0" /><path
         d="m 3616.73,439.039 -37.61,0 0,323.359 180.26,0 0,-33.398 -142.65,0 0,-118.328 134.03,0 0,-33.391 -134.03,0 0,-138.242"
         style="fill:#ef8729;fill-opacity:1;fill-rule:nonzero;stroke:none"
         id="path7914"
         inkscape:connector-curvature="0" /><path
         d="m 3835.91,601.172 c 0,-43.801 9.33,-77.024 27.98,-99.652 18.66,-22.629 45.75,-33.95 81.28,-33.95 35.84,0 62.89,11.282 81.17,33.84 18.29,22.551 27.43,55.809 27.43,99.762 0,43.488 -9.1,76.476 -27.31,98.969 -18.21,22.48 -45.17,33.73 -80.84,33.73 -35.83,0 -63.07,-11.32 -81.73,-33.961 -18.65,-22.629 -27.98,-55.551 -27.98,-98.738 z m 257.67,0 c 0,-51.774 -13.08,-92.461 -39.25,-122.102 -26.18,-29.64 -62.56,-44.461 -109.16,-44.461 -47.62,0 -84.38,14.571 -110.25,43.68 -25.88,29.129 -38.82,70.231 -38.82,123.313 0,52.636 12.98,93.449 38.93,122.429 25.95,28.969 62.81,43.457 110.59,43.457 46.45,0 82.72,-14.75 108.82,-44.226 26.1,-29.5 39.14,-70.203 39.14,-122.09"
         style="fill:#ef8729;fill-opacity:1;fill-rule:nonzero;stroke:none"
         id="path7916"
         inkscape:connector-curvature="0" /><path
         d="m 4203.29,605.809 51.53,0 c 26.55,0 46.01,5.269 58.39,15.812 12.39,10.539 18.58,26.348 18.58,47.438 0,21.382 -6.3,36.8 -18.91,46.23 -12.61,9.43 -32.84,14.16 -60.71,14.16 l -48.88,0 0,-123.64 z m 0,-32.289 0,-134.481 -37.61,0 0,323.359 88.7,0 c 39.66,0 68.97,-7.597 87.92,-22.789 18.94,-15.179 28.42,-38.031 28.42,-68.558 0,-42.762 -21.68,-71.66 -65.03,-86.699 l 87.82,-145.313 -44.47,0 -78.29,134.481 -67.46,0"
         style="fill:#ef8729;fill-opacity:1;fill-rule:nonzero;stroke:none"
         id="path7918"
         inkscape:connector-curvature="0" /><path
         d="m 4588.8,439.039 -109.7,286.652 -1.77,0 c 2.07,-22.711 3.1,-49.691 3.1,-80.953 l 0,-205.699 -34.73,0 0,323.359 56.62,0 102.41,-266.738 1.77,0 103.29,266.738 56.18,0 0,-323.359 -37.6,0 0,208.34 c 0,23.891 1.03,49.84 3.09,77.859 l -1.76,0 -110.59,-286.199 -30.31,0"
         style="fill:#ef8729;fill-opacity:1;fill-rule:nonzero;stroke:none"
         id="path7920"
         inkscape:connector-curvature="0" /><path
         d="m 5005.94,575.73 -37.6,100.192 c -4.86,12.68 -9.88,28.238 -15.04,46.668 -3.24,-14.16 -7.88,-29.719 -13.92,-46.668 l -38.05,-100.192 104.61,0 z m 51.98,-136.691 -40.25,102.84 -129.61,0 -39.81,-102.84 -38.05,0 127.85,324.691 31.62,0 127.18,-324.691 -38.93,0"
         style="fill:#ef8729;fill-opacity:1;fill-rule:nonzero;stroke:none"
         id="path7922"
         inkscape:connector-curvature="0" /><path
         d="m 5240.84,439.039 -37.6,0 0,289.961 -102.41,0 0,33.398 242.42,0 0,-33.398 -102.41,0 0,-289.961"
         style="fill:#ef8729;fill-opacity:1;fill-rule:nonzero;stroke:none"
         id="path7924"
         inkscape:connector-curvature="0" /><path
         d="m 5391.89,439.039 37.6094,0 0,323.359 -37.6094,0 0,-323.359 z"
         style="fill:#ef8729;fill-opacity:1;fill-rule:nonzero;stroke:none"
         id="path7926"
         inkscape:connector-curvature="0" /><path
         d="m 5656.65,733.422 c -35.53,0 -63.59,-11.832 -84.15,-35.492 -20.58,-23.668 -30.86,-56.071 -30.86,-97.211 0,-42.321 9.91,-75.02 29.74,-98.09 19.84,-23.078 48.12,-34.617 84.83,-34.617 22.56,0 48.29,4.047 77.19,12.168 l 0,-32.961 c -22.42,-8.399 -50.06,-12.61 -82.94,-12.61 -47.63,0 -84.38,14.461 -110.26,43.352 -25.88,28.898 -38.81,69.969 -38.81,123.211 0,33.308 6.23,62.5 18.69,87.578 12.46,25.059 30.44,44.379 53.96,57.949 23.52,13.563 51.2,20.34 83.06,20.34 33.9,0 63.55,-6.187 88.91,-18.578 l -15.93,-32.289 c -24.47,11.5 -48.96,17.25 -73.43,17.25"
         style="fill:#ef8729;fill-opacity:1;fill-rule:nonzero;stroke:none"
         id="path7928"
         inkscape:connector-curvature="0" /><path
         d="m 5986.43,525.082 c 0,-28.473 -10.31,-50.66 -30.96,-66.582 -20.64,-15.918 -48.66,-23.891 -84.05,-23.891 -38.34,0 -67.83,4.942 -88.47,14.821 l 0,36.269 c 13.27,-5.597 27.72,-10.027 43.35,-13.258 15.63,-3.261 31.11,-4.871 46.45,-4.871 25.06,0 43.93,4.75 56.62,14.258 12.68,9.524 19.02,22.75 19.02,39.703 0,11.207 -2.25,20.391 -6.75,27.539 -4.49,7.16 -12.01,13.75 -22.56,19.789 -10.54,6.063 -26.57,12.911 -48.1,20.582 -30.08,10.758 -51.58,23.508 -64.47,38.258 -12.91,14.742 -19.36,33.992 -19.36,57.731 0,24.922 9.37,44.75 28.09,59.5 18.73,14.742 43.5,22.109 74.32,22.109 32.14,0 61.71,-5.898 88.69,-17.687 l -11.73,-32.731 c -26.68,11.199 -52.63,16.801 -77.84,16.801 -19.91,0 -35.47,-4.274 -46.68,-12.82 -11.21,-8.551 -16.8,-20.43 -16.8,-35.622 0,-11.199 2.06,-20.378 6.19,-27.531 4.13,-7.148 11.09,-13.719 20.9,-19.687 9.8,-5.973 24.8,-12.571 45.01,-19.793 33.92,-12.09 57.25,-25.071 70.01,-38.93 12.75,-13.859 19.12,-31.848 19.12,-53.957"
         style="fill:#ef8729;fill-opacity:1;fill-rule:nonzero;stroke:none"
         id="path7930"
         inkscape:connector-curvature="0" /><path
         d="m 158.031,4.42188 37.5977,0 0,323.367 -37.5977,0 0,-323.367 z"
         style="fill:#ef8729;fill-opacity:1;fill-rule:nonzero;stroke:none"
         id="path7932"
         inkscape:connector-curvature="0" /><path
         d="m 536.906,4.42188 -42.906,0 -176.723,271.38712 -1.769,0 c 2.355,-31.848 3.543,-61.039 3.543,-87.59 l 0,-183.79712 -34.727,0 0,323.36712 42.465,0 176.277,-270.2773 1.774,0 c -0.297,3.9766 -0.961,16.7696 -1.996,38.3672 -1.031,21.6011 -1.399,37.0511 -1.106,46.3401 l 0,185.57 35.168,0 0,-323.36712"
         style="fill:#ef8729;fill-opacity:1;fill-rule:nonzero;stroke:none"
         id="path7934"
         inkscape:connector-curvature="0" /><path
         d="m 663.422,4.42188 -37.598,0 0,323.36712 180.258,0 0,-33.398 -142.66,0 0,-118.332 134.035,0 0,-33.399 -134.035,0 0,-138.23812"
         style="fill:#ef8729;fill-opacity:1;fill-rule:nonzero;stroke:none"
         id="path7936"
         inkscape:connector-curvature="0" /><path
         d="m 897.211,171.199 51.535,0 c 26.543,0 46.008,5.262 58.394,15.813 12.38,10.527 18.57,26.347 18.57,47.437 0,21.379 -6.29,36.789 -18.9,46.231 -12.615,9.429 -32.849,14.152 -60.716,14.152 l -48.883,0 0,-123.633 z m 0,-32.301 0,-134.47612 -37.598,0 0,323.36712 88.692,0 c 39.664,0 68.965,-7.598 87.915,-22.789 18.95,-15.191 28.42,-38.031 28.42,-68.559 0,-42.761 -21.67,-71.66 -65.023,-86.703 l 87.803,-145.31612 -44.45,0 -78.302,134.47612 -67.457,0"
         style="fill:#ef8729;fill-opacity:1;fill-rule:nonzero;stroke:none"
         id="path7938"
         inkscape:connector-curvature="0" /><path
         d="m 1290.91,141.121 -37.6,100.18 c -4.87,12.687 -9.88,28.25 -15.04,46.679 -3.24,-14.16 -7.89,-29.718 -13.93,-46.679 l -38.05,-100.18 104.62,0 z M 1342.89,4.42188 1302.63,107.27 l -129.61,0 -39.81,-102.84812 -38.04,0 127.84,324.69912 31.63,0 127.18,-324.69912 -38.93,0"
         style="fill:#ef8729;fill-opacity:1;fill-rule:nonzero;stroke:none"
         id="path7940"
         inkscape:connector-curvature="0" /><path
         d="M 1608.74,90.4609 C 1608.74,62 1598.42,39.8086 1577.77,23.8906 1557.13,7.96875 1529.12,0 1493.73,0 c -38.34,0 -67.83,4.94141 -88.47,14.8203 l 0,36.2695 c 13.27,-5.6093 27.72,-10.0312 43.35,-13.2617 15.63,-3.2578 31.11,-4.8672 46.44,-4.8672 25.07,0 43.95,4.75 56.63,14.2579 12.68,9.5117 19.02,22.75 19.02,39.7031 0,11.207 -2.25,20.3871 -6.74,27.5391 -4.51,7.148 -12.03,13.75 -22.57,19.789 -10.54,6.051 -26.58,12.91 -48.1,20.582 -30.09,10.758 -51.58,23.508 -64.47,38.258 -12.91,14.738 -19.36,33.988 -19.36,57.73 0,24.918 9.36,44.75 28.09,59.5 18.72,14.739 43.5,22.11 74.31,22.11 32.15,0 61.71,-5.899 88.7,-17.7 l -11.72,-32.718 c -26.69,11.199 -52.65,16.797 -77.86,16.797 -19.9,0 -35.46,-4.27 -46.67,-12.829 -11.2,-8.55 -16.81,-20.421 -16.81,-35.609 0,-11.199 2.06,-20.391 6.2,-27.531 4.12,-7.149 11.09,-13.719 20.9,-19.692 9.8,-5.968 24.8,-12.57 45.01,-19.789 33.91,-12.089 57.24,-25.07 70,-38.929 12.75,-13.86 19.13,-31.848 19.13,-53.9691"
         style="fill:#ef8729;fill-opacity:1;fill-rule:nonzero;stroke:none"
         id="path7942"
         inkscape:connector-curvature="0" /><path
         d="m 1774.41,4.42188 -37.6,0 0,289.96912 -102.4,0 0,33.398 242.41,0 0,-33.398 -102.41,0 0,-289.96912"
         style="fill:#ef8729;fill-opacity:1;fill-rule:nonzero;stroke:none"
         id="path7944"
         inkscape:connector-curvature="0" /><path
         d="m 1963.07,171.199 51.54,0 c 26.54,0 46.01,5.262 58.39,15.813 12.39,10.527 18.58,26.347 18.58,47.437 0,21.379 -6.3,36.789 -18.91,46.231 -12.61,9.429 -32.85,14.152 -60.71,14.152 l -48.89,0 0,-123.633 z m 0,-32.301 0,-134.47612 -37.6,0 0,323.36712 88.7,0 c 39.66,0 68.96,-7.598 87.91,-22.789 18.95,-15.191 28.42,-38.031 28.42,-68.559 0,-42.761 -21.67,-71.66 -65.02,-86.703 l 87.81,-145.31612 -44.46,0 -78.3,134.47612 -67.46,0"
         style="fill:#ef8729;fill-opacity:1;fill-rule:nonzero;stroke:none"
         id="path7946"
         inkscape:connector-curvature="0" /><path
         d="m 2449.67,327.789 0,-209.238 c 0,-36.8713 -11.14,-65.8322 -33.4,-86.9221 C 2394.01,10.5391 2363.41,0 2324.48,0 c -38.92,0 -69.04,10.6094 -90.35,31.8516 -21.31,21.2265 -31.96,50.4297 -31.96,87.5894 l 0,208.348 37.6,0 0,-211.008 c 0,-26.9802 7.37,-47.6912 22.12,-62.1521 14.74,-14.4492 36.42,-21.668 65.02,-21.668 27.28,0 48.3,7.2579 63.04,21.7774 14.74,14.5234 22.12,35.3633 22.12,62.4917 l 0,210.559 37.6,0"
         style="fill:#ef8729;fill-opacity:1;fill-rule:nonzero;stroke:none"
         id="path7948"
         inkscape:connector-curvature="0" /><path
         d="m 2673.73,298.809 c -35.54,0 -63.59,-11.829 -84.16,-35.489 -20.57,-23.672 -30.86,-56.07 -30.86,-97.211 0,-42.32 9.91,-75.0192 29.75,-98.0973 19.83,-23.0703 48.1,-34.6133 84.82,-34.6133 22.56,0 48.29,4.0508 77.19,12.1602 l 0,-32.9492 C 2728.06,4.21094 2700.41,0 2667.53,0 c -47.63,0 -84.38,14.4492 -110.25,43.3516 -25.89,28.8984 -38.82,69.9684 -38.82,123.1994 0,33.32 6.22,62.508 18.69,87.59 12.45,25.058 30.44,44.371 53.96,57.949 23.52,13.558 51.21,20.34 83.06,20.34 33.91,0 63.55,-6.192 88.91,-18.578 l -15.92,-32.293 c -24.48,11.5 -48.96,17.25 -73.43,17.25"
         style="fill:#ef8729;fill-opacity:1;fill-rule:nonzero;stroke:none"
         id="path7950"
         inkscape:connector-curvature="0" /><path
         d="m 2920.56,4.42188 -37.6,0 0,289.96912 -102.41,0 0,33.398 242.41,0 0,-33.398 -102.4,0 0,-289.96912"
         style="fill:#ef8729;fill-opacity:1;fill-rule:nonzero;stroke:none"
         id="path7952"
         inkscape:connector-curvature="0" /><path
         d="m 3315.8,327.789 0,-209.238 c 0,-36.8713 -11.13,-65.8322 -33.39,-86.9221 C 3260.14,10.5391 3229.55,0 3190.62,0 c -38.93,0 -69.05,10.6094 -90.35,31.8516 -21.31,21.2265 -31.96,50.4297 -31.96,87.5894 l 0,208.348 37.6,0 0,-211.008 c 0,-26.9802 7.37,-47.6912 22.12,-62.1521 14.74,-14.4492 36.42,-21.668 65.03,-21.668 27.27,0 48.28,7.2579 63.03,21.7774 14.74,14.5234 22.12,35.3633 22.12,62.4917 l 0,210.559 37.59,0"
         style="fill:#ef8729;fill-opacity:1;fill-rule:nonzero;stroke:none"
         id="path7954"
         inkscape:connector-curvature="0" /><path
         d="m 3439.01,171.199 51.52,0 c 26.55,0 46.01,5.262 58.39,15.813 12.39,10.527 18.58,26.347 18.58,47.437 0,21.379 -6.3,36.789 -18.9,46.231 -12.61,9.429 -32.85,14.152 -60.72,14.152 l -48.87,0 0,-123.633 z m 0,-32.301 0,-134.47612 -37.61,0 0,323.36712 88.69,0 c 39.67,0 68.97,-7.598 87.92,-22.789 18.95,-15.191 28.42,-38.031 28.42,-68.559 0,-42.761 -21.67,-71.66 -65.03,-86.703 l 87.82,-145.31612 -44.46,0 -78.3,134.47612 -67.45,0"
         style="fill:#ef8729;fill-opacity:1;fill-rule:nonzero;stroke:none"
         id="path7956"
         inkscape:connector-curvature="0" /><path
         d="m 3861.67,4.42188 -180.26,0 0,323.36712 180.26,0 0,-33.398 -142.65,0 0,-104.18 134.03,0 0,-33.172 -134.03,0 0,-118.9999 142.65,0 0,-33.61722"
         style="fill:#ef8729;fill-opacity:1;fill-rule:nonzero;stroke:none"
         id="path7958"
         inkscape:connector-curvature="0" /><path
         d="M 4233.48,90.4609 C 4233.48,62 4223.16,39.8086 4202.52,23.8906 4181.87,7.96875 4153.86,0 4118.46,0 c -38.33,0 -67.82,4.94141 -88.47,14.8203 l 0,36.2695 c 13.28,-5.6093 27.73,-10.0312 43.36,-13.2617 15.63,-3.2578 31.11,-4.8672 46.44,-4.8672 25.07,0 43.94,4.75 56.63,14.2579 12.68,9.5117 19.02,22.75 19.02,39.7031 0,11.207 -2.26,20.3871 -6.75,27.5391 -4.49,7.148 -12.01,13.75 -22.56,19.789 -10.54,6.051 -26.58,12.91 -48.1,20.582 -30.08,10.758 -51.58,23.508 -64.48,38.258 -12.9,14.738 -19.35,33.988 -19.35,57.73 0,24.918 9.36,44.75 28.08,59.5 18.73,14.739 43.5,22.11 74.33,22.11 32.14,0 61.7,-5.899 88.69,-17.7 l -11.73,-32.718 c -26.69,11.199 -52.64,16.797 -77.85,16.797 -19.91,0 -35.46,-4.27 -46.67,-12.829 -11.21,-8.55 -16.81,-20.421 -16.81,-35.609 0,-11.199 2.07,-20.391 6.19,-27.531 4.13,-7.149 11.1,-13.719 20.91,-19.692 9.8,-5.968 24.8,-12.57 45.01,-19.789 33.91,-12.089 57.25,-25.07 70,-38.929 12.75,-13.86 19.13,-31.848 19.13,-53.9691"
         style="fill:#ef8729;fill-opacity:1;fill-rule:nonzero;stroke:none"
         id="path7960"
         inkscape:connector-curvature="0" /><path
         d="m 4581.83,4.42188 -37.15,0 -65.24,216.53912 c -3.11,9.578 -6.57,21.668 -10.4,36.277 -3.84,14.59 -5.83,23.364 -5.97,26.313 -3.25,-19.461 -8.41,-40.77 -15.49,-63.922 l -63.25,-215.20712 -37.16,0 -86.04,323.36712 39.81,0 51.09,-199.73 c 7.08,-28.008 12.24,-53.3793 15.48,-76.0785 3.98,26.9883 9.89,53.3715 17.7,79.1795 l 57.95,196.629 39.81,0 60.82,-198.398 c 7.08,-22.86 13.06,-48.6605 17.92,-77.4105 2.8,20.9297 8.11,46.4492 15.93,76.5315 l 50.87,199.277 39.81,0 -86.49,-323.36712"
         style="fill:#ef8729;fill-opacity:1;fill-rule:nonzero;stroke:none"
         id="path7962"
         inkscape:connector-curvature="0" /><path
         d="m 4899.23,4.42188 -180.27,0 0,323.36712 180.27,0 0,-33.398 -142.66,0 0,-104.18 134.04,0 0,-33.172 -134.04,0 0,-118.9999 142.66,0 0,-33.61722"
         style="fill:#ef8729;fill-opacity:1;fill-rule:nonzero;stroke:none"
         id="path7964"
         inkscape:connector-curvature="0" /><path
         d="m 5189.19,167.871 c 0,42.168 -10.58,73.949 -31.73,95.34 -21.17,21.379 -52.61,32.059 -94.34,32.059 l -54.63,0 0,-258.3403 45.78,0 c 44.82,0 78.52,11.0195 101.08,33.082 22.56,22.0274 33.84,54.6603 33.84,97.8593 z m 39.81,1.328 C 5229,115.82 5214.52,75.0195 5185.54,46.7813 5156.56,18.5391 5114.88,4.42188 5060.46,4.42188 l -89.58,0 0,323.36712 99.1,0 c 50.27,0 89.35,-13.937 117.22,-41.809 27.86,-27.859 41.8,-66.789 41.8,-116.781"
         style="fill:#ef8729;fill-opacity:1;fill-rule:nonzero;stroke:none"
         id="path7966"
         inkscape:connector-curvature="0" /><path
         d="m 5481.37,4.42188 -180.27,0 0,323.36712 180.27,0 0,-33.398 -142.66,0 0,-104.18 134.04,0 0,-33.172 -134.04,0 0,-118.9999 142.66,0 0,-33.61722"
         style="fill:#ef8729;fill-opacity:1;fill-rule:nonzero;stroke:none"
         id="path7968"
         inkscape:connector-curvature="0" /><path
         d="m 5805.63,4.42188 -42.92,0 -176.72,271.38712 -1.77,0 c 2.36,-31.848 3.54,-61.039 3.54,-87.59 l 0,-183.79712 -34.73,0 0,323.36712 42.47,0 176.29,-270.2773 1.76,0 c -0.3,3.9766 -0.96,16.7696 -1.99,38.3672 -1.03,21.6011 -1.4,37.0511 -1.1,46.3401 l 0,185.57 35.17,0 0,-323.36712"
         style="fill:#ef8729;fill-opacity:1;fill-rule:nonzero;stroke:none"
         id="path7970"
         inkscape:connector-curvature="0" /></g></g></svg>